<svg xmlns="http://www.w3.org/2000/svg" width="282.412" height="60" viewBox="0 0 282.412 60">
  <g id="logo_text" data-name="logo &amp; text" transform="translate(60 114)">
    <g id="Logo">
      <path id="Path_1952" data-name="Path 1952" d="M9.251,0h41.5A9.251,9.251,0,0,1,60,9.251v41.5A9.251,9.251,0,0,1,50.749,60H9.251A9.251,9.251,0,0,1,0,50.749V9.251A9.251,9.251,0,0,1,9.251,0Z" transform="translate(-60 -114)" fill="#f80000"/>
      <path id="Path_1951" data-name="Path 1951" d="M2225.48-2448.451l42.928-23.771-45.025,34.25,33.286-18.566-35.646,27.315,24.636-13.672-27.3,20.709Z" transform="translate(-2273.384 2363.203)" fill="#fff"/>
    </g>
    <path id="Path_9229" data-name="Path 9229" d="M25.02-17.352,19.632,0H16.716L12.924-11.856a8.086,8.086,0,0,1-.288-1.056q-.072.3-.144.564t-.156.492L8.508,0H5.58L.2-17.352H2.9a1.192,1.192,0,0,1,.7.2.953.953,0,0,1,.378.534L6.936-6.24q.1.384.186.834t.186.942q.1-.5.21-.948t.246-.828l3.408-10.38a1.136,1.136,0,0,1,.378-.5,1.062,1.062,0,0,1,.69-.228h.948a1.087,1.087,0,0,1,.684.2,1.248,1.248,0,0,1,.4.528l3.4,10.38a14.982,14.982,0,0,1,.456,1.716q.156-.948.348-1.716L21.42-16.62a.9.9,0,0,1,.366-.516,1.153,1.153,0,0,1,.7-.216ZM30.4,0h-3.24V-17.352H30.4ZM48.9-17.352V0H47.244A1.457,1.457,0,0,1,46.6-.126a1.5,1.5,0,0,1-.5-.426L37.044-12.12q.072.792.072,1.464V0H34.272V-17.352h1.692a3.018,3.018,0,0,1,.354.018.851.851,0,0,1,.264.072.866.866,0,0,1,.222.156,2.5,2.5,0,0,1,.24.27L46.14-5.22q-.036-.42-.06-.828T46.056-6.8V-17.352ZM67.836-14.2a1.114,1.114,0,0,1-.306.366.681.681,0,0,1-.4.114,1.037,1.037,0,0,1-.546-.186q-.294-.186-.7-.414a5.781,5.781,0,0,0-.954-.414,4.01,4.01,0,0,0-1.29-.186,3.851,3.851,0,0,0-1.176.162,2.47,2.47,0,0,0-.846.45,1.8,1.8,0,0,0-.51.69,2.265,2.265,0,0,0-.168.882,1.534,1.534,0,0,0,.342,1.02,2.856,2.856,0,0,0,.906.7,8.408,8.408,0,0,0,1.284.516q.72.228,1.476.486a13.9,13.9,0,0,1,1.476.6A5.094,5.094,0,0,1,67.7-8.55a3.916,3.916,0,0,1,.906,1.278,4.438,4.438,0,0,1,.342,1.836,5.982,5.982,0,0,1-.4,2.2,5.08,5.08,0,0,1-1.176,1.788,5.539,5.539,0,0,1-1.89,1.2,6.958,6.958,0,0,1-2.556.438A8.242,8.242,0,0,1,61.3.03a8.591,8.591,0,0,1-1.542-.462,8.261,8.261,0,0,1-1.386-.72,6.683,6.683,0,0,1-1.152-.936l.948-1.548a1.012,1.012,0,0,1,.312-.282.786.786,0,0,1,.408-.114,1.145,1.145,0,0,1,.648.246q.348.246.828.546a6.517,6.517,0,0,0,1.122.546,4.314,4.314,0,0,0,1.542.246A3.165,3.165,0,0,0,65.16-3.1a2.348,2.348,0,0,0,.756-1.878A1.744,1.744,0,0,0,65.574-6.1a2.761,2.761,0,0,0-.906-.726,6.765,6.765,0,0,0-1.284-.5q-.72-.2-1.464-.444a12.624,12.624,0,0,1-1.464-.576,4.743,4.743,0,0,1-1.284-.876,3.986,3.986,0,0,1-.906-1.35,5.145,5.145,0,0,1-.342-2,4.729,4.729,0,0,1,.378-1.848,4.771,4.771,0,0,1,1.1-1.6,5.379,5.379,0,0,1,1.776-1.116,6.522,6.522,0,0,1,2.424-.42,8.094,8.094,0,0,1,2.832.48A6.393,6.393,0,0,1,68.64-15.72Zm20.472,5.52a9.7,9.7,0,0,1-.63,3.534A8.3,8.3,0,0,1,85.9-2.328,8.1,8.1,0,0,1,83.124-.474a9.384,9.384,0,0,1-3.6.666,9.351,9.351,0,0,1-3.588-.666,8.16,8.16,0,0,1-2.778-1.854,8.325,8.325,0,0,1-1.794-2.814,9.618,9.618,0,0,1-.636-3.534,9.618,9.618,0,0,1,.636-3.534,8.325,8.325,0,0,1,1.794-2.814,8.16,8.16,0,0,1,2.778-1.854,9.351,9.351,0,0,1,3.588-.666,9.738,9.738,0,0,1,2.484.306,8.721,8.721,0,0,1,2.136.864,7.9,7.9,0,0,1,1.746,1.356A8.243,8.243,0,0,1,87.2-13.236a8.733,8.733,0,0,1,.822,2.136A10.163,10.163,0,0,1,88.308-8.676Zm-3.3,0a7.964,7.964,0,0,0-.384-2.562,5.491,5.491,0,0,0-1.092-1.926,4.676,4.676,0,0,0-1.722-1.212,5.925,5.925,0,0,0-2.286-.42,5.925,5.925,0,0,0-2.286.42,4.731,4.731,0,0,0-1.728,1.212,5.441,5.441,0,0,0-1.1,1.926,7.964,7.964,0,0,0-.384,2.562,7.964,7.964,0,0,0,.384,2.562,5.379,5.379,0,0,0,1.1,1.92,4.764,4.764,0,0,0,1.728,1.206,5.925,5.925,0,0,0,2.286.42,5.925,5.925,0,0,0,2.286-.42,4.708,4.708,0,0,0,1.722-1.206,5.428,5.428,0,0,0,1.092-1.92A7.964,7.964,0,0,0,85.008-8.676Zm16.308,6.012V0H91.152V-17.352H94.38V-2.664Zm8.808.06a4.263,4.263,0,0,0,1.674-.312,3.431,3.431,0,0,0,1.242-.876,3.875,3.875,0,0,0,.774-1.368,5.633,5.633,0,0,0,.27-1.8V-17.352h3.228V-6.96a8.012,8.012,0,0,1-.5,2.862,6.512,6.512,0,0,1-1.428,2.268,6.479,6.479,0,0,1-2.262,1.488,8,8,0,0,1-3,.534,8.037,8.037,0,0,1-3.012-.534A6.479,6.479,0,0,1,104.85-1.83,6.512,6.512,0,0,1,103.422-4.1a8.012,8.012,0,0,1-.5-2.862V-17.352h3.228v10.38a5.633,5.633,0,0,0,.27,1.8A3.887,3.887,0,0,0,107.2-3.8a3.454,3.454,0,0,0,1.248.882A4.263,4.263,0,0,0,110.124-2.6ZM133.08-14.7h-5.232V0H124.62V-14.7h-5.232v-2.652H133.08ZM138.6,0h-3.24V-17.352h3.24Zm20.424-8.676a9.7,9.7,0,0,1-.63,3.534,8.3,8.3,0,0,1-1.782,2.814A8.1,8.1,0,0,1,153.84-.474a9.384,9.384,0,0,1-3.6.666,9.351,9.351,0,0,1-3.588-.666,8.16,8.16,0,0,1-2.778-1.854,8.325,8.325,0,0,1-1.794-2.814,9.618,9.618,0,0,1-.636-3.534,9.618,9.618,0,0,1,.636-3.534,8.325,8.325,0,0,1,1.794-2.814,8.16,8.16,0,0,1,2.778-1.854,9.351,9.351,0,0,1,3.588-.666,9.738,9.738,0,0,1,2.484.306,8.721,8.721,0,0,1,2.136.864,7.9,7.9,0,0,1,1.746,1.356,8.242,8.242,0,0,1,1.314,1.782,8.734,8.734,0,0,1,.822,2.136A10.162,10.162,0,0,1,159.024-8.676Zm-3.3,0a7.964,7.964,0,0,0-.384-2.562,5.491,5.491,0,0,0-1.092-1.926,4.675,4.675,0,0,0-1.722-1.212,5.925,5.925,0,0,0-2.286-.42,5.925,5.925,0,0,0-2.286.42,4.731,4.731,0,0,0-1.728,1.212,5.441,5.441,0,0,0-1.1,1.926,7.964,7.964,0,0,0-.384,2.562,7.964,7.964,0,0,0,.384,2.562,5.379,5.379,0,0,0,1.1,1.92,4.764,4.764,0,0,0,1.728,1.206,5.925,5.925,0,0,0,2.286.42,5.925,5.925,0,0,0,2.286-.42,4.708,4.708,0,0,0,1.722-1.206,5.428,5.428,0,0,0,1.092-1.92A7.964,7.964,0,0,0,155.724-8.676ZM176.5-17.352V0H174.84a1.457,1.457,0,0,1-.642-.126,1.5,1.5,0,0,1-.5-.426L164.64-12.12q.072.792.072,1.464V0h-2.844V-17.352h1.692a3.018,3.018,0,0,1,.354.018.851.851,0,0,1,.264.072.866.866,0,0,1,.222.156,2.5,2.5,0,0,1,.24.27l9.1,11.616q-.036-.42-.06-.828t-.024-.756V-17.352Zm18.06,10.8-2.112-5.772q-.156-.384-.324-.912t-.336-1.14q-.156.612-.324,1.146t-.324.93l-2.1,5.748ZM200.256,0h-2.5a1.065,1.065,0,0,1-.684-.21,1.308,1.308,0,0,1-.4-.522l-1.3-3.54H188.2l-1.3,3.54a1.15,1.15,0,0,1-.372.5,1.038,1.038,0,0,1-.684.228h-2.52l6.828-17.352h3.288ZM211.3-14.2a1.114,1.114,0,0,1-.306.366.681.681,0,0,1-.4.114,1.037,1.037,0,0,1-.546-.186q-.294-.186-.7-.414a5.781,5.781,0,0,0-.954-.414,4.009,4.009,0,0,0-1.29-.186,3.851,3.851,0,0,0-1.176.162,2.47,2.47,0,0,0-.846.45,1.8,1.8,0,0,0-.51.69,2.265,2.265,0,0,0-.168.882,1.534,1.534,0,0,0,.342,1.02,2.856,2.856,0,0,0,.906.7,8.408,8.408,0,0,0,1.284.516q.72.228,1.476.486a13.9,13.9,0,0,1,1.476.6,5.094,5.094,0,0,1,1.284.864,3.916,3.916,0,0,1,.906,1.278,4.438,4.438,0,0,1,.342,1.836,5.982,5.982,0,0,1-.4,2.2,5.08,5.08,0,0,1-1.176,1.788,5.539,5.539,0,0,1-1.89,1.2,6.958,6.958,0,0,1-2.556.438A8.242,8.242,0,0,1,204.756.03a8.591,8.591,0,0,1-1.542-.462,8.261,8.261,0,0,1-1.386-.72,6.683,6.683,0,0,1-1.152-.936l.948-1.548a1.012,1.012,0,0,1,.312-.282.786.786,0,0,1,.408-.114,1.145,1.145,0,0,1,.648.246q.348.246.828.546a6.517,6.517,0,0,0,1.122.546,4.315,4.315,0,0,0,1.542.246A3.165,3.165,0,0,0,208.62-3.1a2.348,2.348,0,0,0,.756-1.878,1.744,1.744,0,0,0-.342-1.116,2.761,2.761,0,0,0-.906-.726,6.764,6.764,0,0,0-1.284-.5q-.72-.2-1.464-.444a12.624,12.624,0,0,1-1.464-.576,4.743,4.743,0,0,1-1.284-.876,3.986,3.986,0,0,1-.906-1.35,5.145,5.145,0,0,1-.342-2,4.729,4.729,0,0,1,.378-1.848,4.771,4.771,0,0,1,1.1-1.6,5.379,5.379,0,0,1,1.776-1.116,6.522,6.522,0,0,1,2.424-.42,8.094,8.094,0,0,1,2.832.48A6.393,6.393,0,0,1,212.1-15.72Z" transform="translate(10 -75.324)" fill="#f8f8f8"/>
  </g>
</svg>
