<svg width="30" height="30" viewBox="0 0 30 30" fill="none" xmlns="http://www.w3.org/2000/svg">
<g clip-path="url(#clip0_398_3254)">
<path d="M7.5 9.09375V10.7813H9.375V9.09375H7.5ZM20.625 9.09375V10.7813H22.5V9.09375H20.625ZM7.5 12.4688V14.1563H9.375V12.4688H7.5ZM20.625 12.4688V14.1563H22.5V12.4688H20.625ZM7.5 15.8438V17.5313H9.375V15.8438H7.5ZM20.625 15.8438V17.5313H22.5V15.8438H20.625ZM7.5 19.2188V20.9062H9.375V19.2188H7.5ZM20.625 19.2188V20.9062H22.5V19.2188H20.625Z" fill="#B1B5C4"/>
<path d="M28.2742 11.1413L28.875 11.0193V10.4063V8.4375C28.875 7.98995 28.6972 7.56073 28.3807 7.24426C28.0643 6.92779 27.6351 6.75 27.1875 6.75H2.8125C2.36495 6.75 1.93572 6.92779 1.61926 7.24426C1.30279 7.56072 1.125 7.98995 1.125 8.4375V10.4063V11.0193L1.72575 11.1413C2.61585 11.322 3.4161 11.8049 3.9909 12.5081C4.5657 13.2114 4.8797 14.0917 4.8797 15C4.8797 15.9083 4.5657 16.7886 3.9909 17.4919C3.4161 18.1951 2.61585 18.678 1.72575 18.8588L1.125 18.9807V19.5938V21.5625C1.125 22.0101 1.30279 22.4393 1.61926 22.7557C1.93573 23.0722 2.36495 23.25 2.8125 23.25H27.1875C27.635 23.25 28.0643 23.0722 28.3807 22.7557L27.8504 22.2254L28.3807 22.7557C28.6972 22.4393 28.875 22.01 28.875 21.5625V19.5938V18.9807L28.2742 18.8588C27.3841 18.678 26.5839 18.1951 26.0091 17.4919C25.4343 16.7886 25.1203 15.9083 25.1203 15C25.1203 14.0917 25.4343 13.2114 26.0091 12.5081C26.5839 11.8049 27.3841 11.322 28.2742 11.1413ZM0.804918 11.3826L0.279453 11.908L0.804917 11.3826C0.769754 11.3474 0.75 11.2997 0.75 11.25V8.4375C0.75 7.89049 0.967298 7.36589 1.35409 6.97909C1.74089 6.5923 2.26549 6.375 2.8125 6.375H27.1875C27.7345 6.375 28.2591 6.5923 28.6459 6.97909C29.0327 7.36589 29.25 7.89049 29.25 8.4375V11.25C29.25 11.2997 29.2302 11.3474 29.1951 11.3826C29.1599 11.4177 29.1122 11.4375 29.0625 11.4375C28.1177 11.4375 27.2115 11.8128 26.5434 12.4809C25.8753 13.149 25.5 14.0552 25.5 15C25.5 15.9448 25.8753 16.851 26.5434 17.5191C27.2115 18.1872 28.1177 18.5625 29.0625 18.5625C29.1122 18.5625 29.1599 18.5823 29.1951 18.6174C29.2302 18.6526 29.25 18.7003 29.25 18.75V21.5625C29.25 22.1095 29.0327 22.6341 28.6459 23.0209C28.2591 23.4077 27.7345 23.625 27.1875 23.625H2.8125C2.26549 23.625 1.74089 23.4077 1.35409 23.0209C0.967298 22.6341 0.75 22.1095 0.75 21.5625V18.75C0.75 18.7003 0.769755 18.6526 0.804918 18.6174C0.840079 18.5823 0.88777 18.5625 0.9375 18.5625C1.88233 18.5625 2.78847 18.1872 3.45657 17.5191C4.12467 16.851 4.5 15.9448 4.5 15C4.5 14.0552 4.12467 13.149 3.45657 12.4809C2.78847 11.8128 1.88233 11.4375 0.9375 11.4375C0.887772 11.4375 0.840081 11.4177 0.804918 11.3826Z" fill="#141416" stroke="#B1B5C4" stroke-width="1.5"/>
</g>
<defs>
<clipPath id="clip0_398_3254">
<rect width="30" height="30" fill="white"/>
</clipPath>
</defs>
</svg>
