<svg width="30" height="30" viewBox="0 0 30 30" fill="none" xmlns="http://www.w3.org/2000/svg">
<path d="M3.75 15H15V16.875H3.75V15ZM1.875 10.3125H11.25V12.1875H1.875V10.3125Z" fill="#fff"/>
<path d="M27.8193 15.6666L27.8194 15.6668C27.8561 15.7523 27.875 15.8444 27.875 15.9374V15.9375V22.5C27.875 22.6823 27.8026 22.8572 27.6736 22.9861C27.5447 23.1151 27.3698 23.1875 27.1875 23.1875H25.1794H24.9848L24.937 23.3761C24.7468 24.1268 24.3116 24.7926 23.7004 25.2682C23.0893 25.7438 22.3369 26.002 21.5625 26.002C20.7881 26.002 20.0358 25.7438 19.4246 25.2682C18.8134 24.7926 18.3782 24.1268 18.188 23.3761L18.1402 23.1875H17.9456H12.0544H11.8607L11.8123 23.375C11.5994 24.1998 11.0929 24.9187 10.3878 25.3968C9.68276 25.8749 8.82753 26.0794 7.98245 25.9721C7.13736 25.8648 6.36043 25.4529 5.79729 24.8137C5.23415 24.1745 4.92346 23.3519 4.92346 22.5C4.92346 21.6481 5.23415 20.8255 5.79729 20.1863C6.36043 19.5471 7.13736 19.1352 7.98245 19.0279C8.82753 18.9206 9.68276 19.1251 10.3878 19.6032C11.0929 20.0813 11.5994 20.8002 11.8123 21.625L11.8607 21.8125H12.0544H17.9456H18.1388L18.1875 21.6256C18.304 21.1796 18.5075 20.761 18.7865 20.394C19.0655 20.0271 19.4144 19.7189 19.813 19.4874L19.9375 19.4152V19.2712V7.5V7.25H19.6875H5.87501V5.875H20.625C20.8073 5.875 20.9822 5.94743 21.1111 6.07636C21.2401 6.20529 21.3125 6.38016 21.3125 6.5625V8.4375V8.6875H21.5625H24.375H24.3751C24.5096 8.68743 24.6412 8.72686 24.7535 8.8009C24.8658 8.87494 24.9538 8.98032 25.0067 9.10397L25.0068 9.1041L27.8193 15.6666ZM8.43751 24.625H8.43776C9.0011 24.6244 9.54122 24.4004 9.93956 24.0021C10.3379 23.6037 10.5619 23.0636 10.5625 22.5002V22.5C10.5625 22.0797 10.4379 21.6689 10.2044 21.3194C9.97088 20.97 9.639 20.6976 9.25071 20.5368C8.86242 20.3759 8.43515 20.3338 8.02294 20.4158C7.61073 20.4978 7.23209 20.7002 6.93491 20.9974C6.63772 21.2946 6.43533 21.6732 6.35334 22.0854C6.27135 22.4976 6.31343 22.9249 6.47426 23.3132C6.6351 23.7015 6.90747 24.0334 7.25692 24.2669C7.60638 24.5004 8.01722 24.625 8.43751 24.625ZM21.5625 10.0625H21.3125V10.3125V15V15.25H21.5625H25.7663H26.1455L25.996 14.9015L23.986 10.214L23.9211 10.0625H23.7563H21.5625ZM23.6875 22.5002V22.5C23.6875 22.0797 23.5629 21.6689 23.3294 21.3194C23.0959 20.97 22.764 20.6976 22.3757 20.5368C21.9874 20.3759 21.5602 20.3338 21.1479 20.4158C20.7357 20.4978 20.3571 20.7002 20.0599 20.9974C19.7627 21.2946 19.5603 21.6732 19.4783 22.0854C19.3963 22.4976 19.4384 22.9249 19.5993 23.3132C19.7601 23.7015 20.0325 24.0334 20.3819 24.2669C20.7314 24.5004 21.1422 24.625 21.5625 24.625H21.5628C22.1261 24.6244 22.6662 24.4004 23.0646 24.0021C23.4629 23.6037 23.6869 23.0636 23.6875 22.5002ZM26.25 21.8125H26.5V21.5625V16.875V16.625H26.25H21.5625H21.3125V16.875V18.75V18.9993L21.5618 19C22.3356 19.0022 23.0868 19.261 23.6977 19.736C24.3086 20.211 24.7445 20.8753 24.9373 21.6248L24.9855 21.8125H25.1794H26.25Z" fill="#B1B5C4" stroke="#B1B5C4" stroke-width="0.5"/>
</svg>
