<svg width="9" height="14" viewBox="0 0 9 14" fill="none" xmlns="http://www.w3.org/2000/svg">
<mask id="path-1-inside-1_523_29519" fill="white">
<path d="M7.16606 4.66665H8.49939C8.49939 2.77531 6.66272 1.91265 5.16606 1.71398V0.333313H3.83272V1.71398C2.33606 1.91265 0.49939 2.77531 0.49939 4.66665C0.49939 6.47065 2.27672 7.40865 3.83272 7.61998V10.9333C2.86739 10.766 1.83272 10.2506 1.83272 9.33331H0.49939C0.49939 11.0593 2.11606 12.0793 3.83272 12.2906V13.6666H5.16606V12.2866C6.66272 12.088 8.49939 11.2246 8.49939 9.33331C8.49939 7.44198 6.66272 6.57931 5.16606 6.38065V3.06665C6.05272 3.22598 7.16606 3.69398 7.16606 4.66665ZM1.83272 4.66665C1.83272 3.69398 2.94606 3.22598 3.83272 3.06665V6.26598C2.91872 6.09731 1.83272 5.59798 1.83272 4.66665ZM7.16606 9.33331C7.16606 10.306 6.05272 10.774 5.16606 10.9333V7.73331C6.05272 7.89265 7.16606 8.36065 7.16606 9.33331Z"/>
</mask>
<path d="M7.16606 4.66665H8.49939C8.49939 2.77531 6.66272 1.91265 5.16606 1.71398V0.333313H3.83272V1.71398C2.33606 1.91265 0.49939 2.77531 0.49939 4.66665C0.49939 6.47065 2.27672 7.40865 3.83272 7.61998V10.9333C2.86739 10.766 1.83272 10.2506 1.83272 9.33331H0.49939C0.49939 11.0593 2.11606 12.0793 3.83272 12.2906V13.6666H5.16606V12.2866C6.66272 12.088 8.49939 11.2246 8.49939 9.33331C8.49939 7.44198 6.66272 6.57931 5.16606 6.38065V3.06665C6.05272 3.22598 7.16606 3.69398 7.16606 4.66665ZM1.83272 4.66665C1.83272 3.69398 2.94606 3.22598 3.83272 3.06665V6.26598C2.91872 6.09731 1.83272 5.59798 1.83272 4.66665ZM7.16606 9.33331C7.16606 10.306 6.05272 10.774 5.16606 10.9333V7.73331C6.05272 7.89265 7.16606 8.36065 7.16606 9.33331Z" fill="#777E91"/>
<path d="M8.49939 4.66665V6.16665H9.99939V4.66665H8.49939ZM5.16606 1.71398H3.66606V3.02803L4.96868 3.20094L5.16606 1.71398ZM5.16606 0.333313H6.66606V-1.16669H5.16606V0.333313ZM3.83272 0.333313V-1.16669H2.33272V0.333313H3.83272ZM3.83272 1.71398L4.0301 3.20094L5.33272 3.02803V1.71398H3.83272ZM3.83272 7.61998H5.33272V6.30994L4.0346 6.13363L3.83272 7.61998ZM3.83272 10.9333L3.57653 12.4113L5.33272 12.7157V10.9333H3.83272ZM1.83272 9.33331H3.33272V7.83331H1.83272V9.33331ZM0.49939 9.33331V7.83331H-1.00061V9.33331H0.49939ZM3.83272 12.2906H5.33272V10.964L4.016 10.8019L3.83272 12.2906ZM3.83272 13.6666H2.33272V15.1666H3.83272V13.6666ZM5.16606 13.6666V15.1666H6.66606V13.6666H5.16606ZM5.16606 12.2866L4.96868 10.7997L3.66606 10.9726V12.2866H5.16606ZM5.16606 6.38065H3.66606V7.69469L4.96868 7.8676L5.16606 6.38065ZM5.16606 3.06665L5.43135 1.59029L3.66606 1.27307V3.06665H5.16606ZM3.83272 3.06665H5.33272V1.27307L3.56742 1.59029L3.83272 3.06665ZM3.83272 6.26598L3.56051 7.74107L5.33272 8.06811V6.26598H3.83272ZM5.16606 10.9333H3.66606V12.7269L5.43135 12.4097L5.16606 10.9333ZM5.16606 7.73331L5.43135 6.25696L3.66606 5.93974V7.73331H5.16606ZM7.16606 6.16665H8.49939V3.16665H7.16606V6.16665ZM9.99939 4.66665C9.99939 3.15439 9.23504 2.04999 8.28466 1.34863C7.37774 0.679349 6.28186 0.348933 5.36343 0.227022L4.96868 3.20094C5.54692 3.27769 6.11771 3.47794 6.50329 3.76249C6.8454 4.01497 6.99939 4.28757 6.99939 4.66665H9.99939ZM6.66606 1.71398V0.333313H3.66606V1.71398H6.66606ZM5.16606 -1.16669H3.83272V1.83331H5.16606V-1.16669ZM2.33272 0.333313V1.71398H5.33272V0.333313H2.33272ZM3.63534 0.227022C2.71692 0.348933 1.62104 0.679349 0.714121 1.34863C-0.236264 2.04999 -1.00061 3.15439 -1.00061 4.66665H1.99939C1.99939 4.28757 2.15338 4.01497 2.49549 3.76249C2.88107 3.47794 3.45186 3.27769 4.0301 3.20094L3.63534 0.227022ZM-1.00061 4.66665C-1.00061 6.13392 -0.252971 7.22829 0.673862 7.93399C1.56724 8.61422 2.66347 8.97495 3.63085 9.10633L4.0346 6.13363C3.44597 6.05368 2.87554 5.83974 2.49125 5.54713C2.14042 5.28 1.99939 5.00337 1.99939 4.66665H-1.00061ZM2.33272 7.61998V10.9333H5.33272V7.61998H2.33272ZM4.08892 9.45535C3.74488 9.39572 3.4728 9.28461 3.32848 9.18402C3.26357 9.13876 3.26324 9.12252 3.28265 9.15367C3.30928 9.19643 3.33272 9.26479 3.33272 9.33331H0.332723C0.332723 10.4415 0.982173 11.2054 1.61296 11.6451C2.22732 12.0733 2.95523 12.3036 3.57653 12.4113L4.08892 9.45535ZM1.83272 7.83331H0.49939V10.8333H1.83272V7.83331ZM-1.00061 9.33331C-1.00061 10.7241 -0.329028 11.8167 0.582769 12.5493C1.46493 13.2581 2.5792 13.6477 3.64945 13.7794L4.016 10.8019C3.36958 10.7223 2.81718 10.4962 2.46184 10.2107C2.13614 9.94897 1.99939 9.66855 1.99939 9.33331H-1.00061ZM2.33272 12.2906V13.6666H5.33272V12.2906H2.33272ZM3.83272 15.1666H5.16606V12.1666H3.83272V15.1666ZM6.66606 13.6666V12.2866H3.66606V13.6666H6.66606ZM5.36343 13.7736C6.28208 13.6517 7.37799 13.321 8.28486 12.6515C9.23512 11.95 9.99939 10.8455 9.99939 9.33331H6.99939C6.99939 9.71246 6.84532 9.9853 6.50309 10.2379C6.11746 10.5226 5.54669 10.723 4.96868 10.7997L5.36343 13.7736ZM9.99939 9.33331C9.99939 7.82105 9.23504 6.71666 8.28466 6.0153C7.37774 5.34602 6.28186 5.0156 5.36343 4.89369L4.96868 7.8676C5.54692 7.94436 6.11771 8.14461 6.50329 8.42916C6.8454 8.68163 6.99939 8.95424 6.99939 9.33331H9.99939ZM6.66606 6.38065V3.06665H3.66606V6.38065H6.66606ZM4.90076 4.543C5.05329 4.57041 5.20848 4.61003 5.34991 4.66034C5.49378 4.71151 5.59962 4.76529 5.66861 4.81112C5.73853 4.85757 5.73883 4.87448 5.71802 4.84224C5.68839 4.79634 5.66606 4.72765 5.66606 4.66665H8.66606C8.66606 3.50814 7.97167 2.73939 7.32851 2.31217C6.70671 1.89915 5.98753 1.69024 5.43135 1.59029L4.90076 4.543ZM3.33272 4.66665C3.33272 4.72765 3.31039 4.79634 3.28076 4.84224C3.25995 4.87448 3.26024 4.85757 3.33017 4.81112C3.39916 4.76529 3.505 4.71151 3.64886 4.66034C3.7903 4.61003 3.94549 4.57041 4.09802 4.543L3.56742 1.59029C3.01125 1.69024 2.29207 1.89915 1.67027 2.31217C1.02711 2.73939 0.332723 3.50814 0.332723 4.66665H3.33272ZM2.33272 3.06665V6.26598H5.33272V3.06665H2.33272ZM4.10493 4.79089C3.77401 4.72982 3.4915 4.61941 3.33349 4.51196C3.2617 4.46313 3.25878 4.44401 3.2781 4.47404C3.30581 4.5171 3.33272 4.59029 3.33272 4.66665H0.332723C0.332723 5.8056 1.02163 6.56775 1.64646 6.99267C2.25995 7.40988 2.97743 7.63347 3.56051 7.74107L4.10493 4.79089ZM5.66606 9.33331C5.66606 9.27231 5.68839 9.20362 5.71802 9.15772C5.73883 9.12548 5.73853 9.14239 5.66861 9.18884C5.59962 9.23467 5.49378 9.28845 5.34991 9.33962C5.20848 9.38993 5.05329 9.42955 4.90076 9.45696L5.43135 12.4097C5.98753 12.3097 6.70671 12.1008 7.32851 11.6878C7.97167 11.2606 8.66606 10.4918 8.66606 9.33331H5.66606ZM6.66606 10.9333V7.73331H3.66606V10.9333H6.66606ZM4.90076 9.20967C5.05329 9.23707 5.20848 9.2767 5.34991 9.32701C5.49378 9.37818 5.59962 9.43196 5.66861 9.47779C5.73853 9.52424 5.73883 9.54114 5.71802 9.50891C5.68839 9.46301 5.66606 9.39431 5.66606 9.33331H8.66606C8.66606 8.17481 7.97167 7.40605 7.32851 6.97884C6.70671 6.56582 5.98753 6.35691 5.43135 6.25696L4.90076 9.20967Z" fill="#777E91" mask="url(#path-1-inside-1_523_29519)"/>
</svg>
