<svg width="30" height="30" viewBox="0 0 30 30" fill="none" xmlns="http://www.w3.org/2000/svg">
<path d="M24 5.5C24.3978 5.5 24.7794 5.65804 25.0607 5.93934C25.342 6.22064 25.5 6.60218 25.5 7V19C25.5 19.3978 25.342 19.7794 25.0607 20.0607C24.7794 20.342 24.3978 20.5 24 20.5H20.25C19.7843 20.5 19.3249 20.6084 18.9084 20.8167C18.4918 21.025 18.1294 21.3274 17.85 21.7L15 25.4995L12.15 21.7C11.8706 21.3274 11.5082 21.025 11.0916 20.8167C10.6751 20.6084 10.2157 20.5 9.75 20.5H6C5.60218 20.5 5.22064 20.342 4.93934 20.0607C4.65804 19.7794 4.5 19.3978 4.5 19V7C4.5 6.60218 4.65804 6.22064 4.93934 5.93934C5.22064 5.65804 5.60218 5.5 6 5.5H24ZM6 4C5.20435 4 4.44129 4.31607 3.87868 4.87868C3.31607 5.44129 3 6.20435 3 7L3 19C3 19.7956 3.31607 20.5587 3.87868 21.1213C4.44129 21.6839 5.20435 22 6 22H9.75C9.98287 22 10.2125 22.0542 10.4208 22.1584C10.6291 22.2625 10.8103 22.4137 10.95 22.6L13.8 26.3995C13.9397 26.5858 14.1209 26.737 14.3292 26.8411C14.5375 26.9453 14.7671 26.9995 15 26.9995C15.2329 26.9995 15.4625 26.9453 15.6708 26.8411C15.8791 26.737 16.0603 26.5858 16.2 26.3995L19.05 22.6C19.1897 22.4137 19.3709 22.2625 19.5792 22.1584C19.7875 22.0542 20.0171 22 20.25 22H24C24.7956 22 25.5587 21.6839 26.1213 21.1213C26.6839 20.5587 27 19.7956 27 19V7C27 6.20435 26.6839 5.44129 26.1213 4.87868C25.5587 4.31607 24.7956 4 24 4H6Z" fill="#B1B5C4"/>
<mask id="path-2-inside-1_425_2687" fill="white">
<path d="M7.5 9.25C7.5 9.05109 7.57902 8.86032 7.71967 8.71967C7.86032 8.57902 8.05109 8.5 8.25 8.5H21.75C21.9489 8.5 22.1397 8.57902 22.2803 8.71967C22.421 8.86032 22.5 9.05109 22.5 9.25C22.5 9.44891 22.421 9.63968 22.2803 9.78033C22.1397 9.92098 21.9489 10 21.75 10H8.25C8.05109 10 7.86032 9.92098 7.71967 9.78033C7.57902 9.63968 7.5 9.44891 7.5 9.25ZM7.5 13C7.5 12.8011 7.57902 12.6103 7.71967 12.4697C7.86032 12.329 8.05109 12.25 8.25 12.25H21.75C21.9489 12.25 22.1397 12.329 22.2803 12.4697C22.421 12.6103 22.5 12.8011 22.5 13C22.5 13.1989 22.421 13.3897 22.2803 13.5303C22.1397 13.671 21.9489 13.75 21.75 13.75H8.25C8.05109 13.75 7.86032 13.671 7.71967 13.5303C7.57902 13.3897 7.5 13.1989 7.5 13ZM7.5 16.75C7.5 16.5511 7.57902 16.3603 7.71967 16.2197C7.86032 16.079 8.05109 16 8.25 16H15.75C15.9489 16 16.1397 16.079 16.2803 16.2197C16.421 16.3603 16.5 16.5511 16.5 16.75C16.5 16.9489 16.421 17.1397 16.2803 17.2803C16.1397 17.421 15.9489 17.5 15.75 17.5H8.25C8.05109 17.5 7.86032 17.421 7.71967 17.2803C7.57902 17.1397 7.5 16.9489 7.5 16.75Z"/>
</mask>
<path d="M7.5 9.25C7.5 9.05109 7.57902 8.86032 7.71967 8.71967C7.86032 8.57902 8.05109 8.5 8.25 8.5H21.75C21.9489 8.5 22.1397 8.57902 22.2803 8.71967C22.421 8.86032 22.5 9.05109 22.5 9.25C22.5 9.44891 22.421 9.63968 22.2803 9.78033C22.1397 9.92098 21.9489 10 21.75 10H8.25C8.05109 10 7.86032 9.92098 7.71967 9.78033C7.57902 9.63968 7.5 9.44891 7.5 9.25ZM7.5 13C7.5 12.8011 7.57902 12.6103 7.71967 12.4697C7.86032 12.329 8.05109 12.25 8.25 12.25H21.75C21.9489 12.25 22.1397 12.329 22.2803 12.4697C22.421 12.6103 22.5 12.8011 22.5 13C22.5 13.1989 22.421 13.3897 22.2803 13.5303C22.1397 13.671 21.9489 13.75 21.75 13.75H8.25C8.05109 13.75 7.86032 13.671 7.71967 13.5303C7.57902 13.3897 7.5 13.1989 7.5 13ZM7.5 16.75C7.5 16.5511 7.57902 16.3603 7.71967 16.2197C7.86032 16.079 8.05109 16 8.25 16H15.75C15.9489 16 16.1397 16.079 16.2803 16.2197C16.421 16.3603 16.5 16.5511 16.5 16.75C16.5 16.9489 16.421 17.1397 16.2803 17.2803C16.1397 17.421 15.9489 17.5 15.75 17.5H8.25C8.05109 17.5 7.86032 17.421 7.71967 17.2803C7.57902 17.1397 7.5 16.9489 7.5 16.75Z" fill="#141416"/>
<path d="M8.25 8.5V10V8.5ZM9 9.25C9 9.44891 8.92098 9.63968 8.78033 9.78033L6.65901 7.65901C6.23705 8.08097 6 8.65326 6 9.25H9ZM8.78033 9.78033C8.63968 9.92098 8.44891 10 8.25 10V7C7.65326 7 7.08097 7.23705 6.65901 7.65901L8.78033 9.78033ZM8.25 10H21.75V7H8.25V10ZM21.75 10C21.5511 10 21.3603 9.92098 21.2197 9.78033L23.341 7.65901C22.919 7.23705 22.3467 7 21.75 7V10ZM21.2197 9.78033C21.079 9.63968 21 9.44891 21 9.25H24C24 8.65327 23.7629 8.08097 23.341 7.65901L21.2197 9.78033ZM21 9.25C21 9.05109 21.079 8.86032 21.2197 8.71967L23.341 10.841C23.7629 10.419 24 9.84673 24 9.25H21ZM21.2197 8.71967C21.3603 8.57902 21.5511 8.5 21.75 8.5V11.5C22.3467 11.5 22.919 11.2629 23.341 10.841L21.2197 8.71967ZM21.75 8.5H8.25V11.5H21.75V8.5ZM8.25 8.5C8.44891 8.5 8.63968 8.57902 8.78033 8.71967L6.65901 10.841C7.08097 11.2629 7.65326 11.5 8.25 11.5V8.5ZM8.78033 8.71967C8.92098 8.86032 9 9.05109 9 9.25H6C6 9.84674 6.23705 10.419 6.65901 10.841L8.78033 8.71967ZM9 13C9 13.1989 8.92098 13.3897 8.78033 13.5303L6.65901 11.409C6.23705 11.831 6 12.4033 6 13H9ZM8.78033 13.5303C8.63968 13.671 8.44891 13.75 8.25 13.75V10.75C7.65326 10.75 7.08097 10.9871 6.65901 11.409L8.78033 13.5303ZM8.25 13.75H21.75V10.75H8.25V13.75ZM21.75 13.75C21.5511 13.75 21.3603 13.671 21.2197 13.5303L23.341 11.409C22.919 10.9871 22.3467 10.75 21.75 10.75V13.75ZM21.2197 13.5303C21.079 13.3897 21 13.1989 21 13H24C24 12.4033 23.7629 11.831 23.341 11.409L21.2197 13.5303ZM21 13C21 12.8011 21.079 12.6103 21.2197 12.4697L23.341 14.591C23.7629 14.169 24 13.5967 24 13H21ZM21.2197 12.4697C21.3603 12.329 21.5511 12.25 21.75 12.25V15.25C22.3467 15.25 22.919 15.0129 23.341 14.591L21.2197 12.4697ZM21.75 12.25H8.25V15.25H21.75V12.25ZM8.25 12.25C8.44891 12.25 8.63968 12.329 8.78033 12.4697L6.65901 14.591C7.08097 15.0129 7.65326 15.25 8.25 15.25V12.25ZM8.78033 12.4697C8.92098 12.6103 9 12.8011 9 13H6C6 13.5967 6.23705 14.169 6.65901 14.591L8.78033 12.4697ZM9 16.75C9 16.9489 8.92098 17.1397 8.78033 17.2803L6.65901 15.159C6.23705 15.581 6 16.1533 6 16.75H9ZM8.78033 17.2803C8.63968 17.421 8.44891 17.5 8.25 17.5V14.5C7.65327 14.5 7.08097 14.7371 6.65901 15.159L8.78033 17.2803ZM8.25 17.5H15.75V14.5H8.25V17.5ZM15.75 17.5C15.5511 17.5 15.3603 17.421 15.2197 17.2803L17.341 15.159C16.919 14.737 16.3467 14.5 15.75 14.5V17.5ZM15.2197 17.2803C15.079 17.1397 15 16.9489 15 16.75H18C18 16.1533 17.763 15.581 17.341 15.159L15.2197 17.2803ZM15 16.75C15 16.5511 15.079 16.3603 15.2197 16.2197L17.341 18.341C17.763 17.919 18 17.3467 18 16.75H15ZM15.2197 16.2197C15.3603 16.079 15.5511 16 15.75 16V19C16.3467 19 16.919 18.763 17.341 18.341L15.2197 16.2197ZM15.75 16H8.25V19H15.75V16ZM8.25 16C8.44891 16 8.63968 16.079 8.78033 16.2197L6.65901 18.341C7.08097 18.7629 7.65327 19 8.25 19V16ZM8.78033 16.2197C8.92098 16.3603 9 16.5511 9 16.75H6C6 17.3467 6.23705 17.919 6.65901 18.341L8.78033 16.2197Z" fill="#B1B5C4" mask="url(#path-2-inside-1_425_2687)"/>
</svg>
