<svg width="30" height="30" viewBox="0 0 30 30" fill="none" xmlns="http://www.w3.org/2000/svg">
<path d="M21.999 25H7.99902C7.20386 24.9984 6.44166 24.6814 5.87939 24.1191C5.31713 23.5569 5.00061 22.7952 4.99902 22V6C5.00035 5.20476 5.31683 4.44221 5.87915 3.87988C6.44147 3.31756 7.20378 3.00132 7.99902 3H10.499V5H7.99902C7.73381 5 7.47941 5.10543 7.29187 5.29297C7.10433 5.48051 6.99902 5.73478 6.99902 6V22C6.99902 22.2652 7.10433 22.5195 7.29187 22.707C7.47941 22.8946 7.73381 23 7.99902 23H21.999C22.2642 23 22.5186 22.8946 22.7062 22.707C22.8937 22.5195 22.999 22.2652 22.999 22V6C22.999 5.73478 22.8937 5.48051 22.7062 5.29297C22.5186 5.10543 22.2642 5 21.999 5H19.499V3H21.999C22.7947 3 23.5578 3.3163 24.1204 3.87891C24.683 4.44152 24.999 5.20435 24.999 6V22C24.9977 22.7952 24.6812 23.5578 24.1189 24.1201C23.5566 24.6824 22.7943 24.9987 21.999 25Z" fill="#B1B5C4"/>
<path d="M18.501 6.50098H11.501C11.2358 6.50098 10.9814 6.39554 10.7938 6.20801C10.6063 6.02047 10.501 5.76619 10.501 5.50098V2.50098C10.501 2.23576 10.6063 1.98148 10.7938 1.79395C10.9814 1.60641 11.2358 1.50098 11.501 1.50098H18.501C18.7662 1.50098 19.0206 1.60641 19.2081 1.79395C19.3957 1.98148 19.501 2.23576 19.501 2.50098V5.50098C19.501 5.76619 19.3957 6.02047 19.2081 6.20801C19.0206 6.39554 18.7662 6.50098 18.501 6.50098ZM12.001 3.00098V5.00098H18.001V3.00098H12.001Z" fill="#B1B5C4"/>
<path d="M19 11H11C10.4477 11 10 11.4477 10 12C10 12.5523 10.4477 13 11 13H19C19.5523 13 20 12.5523 20 12C20 11.4477 19.5523 11 19 11Z" fill="#B1B5C4"/>
<path d="M16 16H11C10.4477 16 10 16.4477 10 17C10 17.5523 10.4477 18 11 18H16C16.5523 18 17 17.5523 17 17C17 16.4477 16.5523 16 16 16Z" fill="#B1B5C4"/>
</svg>
