<svg width="30" height="30" viewBox="0 0 30 30" fill="none" xmlns="http://www.w3.org/2000/svg">
<path d="M19.8214 17.5714C19.5656 17.5714 19.3204 17.673 19.1395 17.8538C18.9587 18.0347 18.8571 18.2799 18.8571 18.5357C18.8571 18.7914 18.9587 19.0367 19.1395 19.2175C19.3204 19.3984 19.5656 19.5 19.8214 19.5H23.0357C23.2914 19.5 23.5367 19.3984 23.7175 19.2175C23.8984 19.0367 24 18.7914 24 18.5357C24 18.2799 23.8984 18.0347 23.7175 17.8538C23.5367 17.673 23.2914 17.5714 23.0357 17.5714H19.8214ZM5.08925 5.35712C4.30781 5.35712 3.55837 5.66754 3.00581 6.22011C2.45325 6.77267 2.14282 7.5221 2.14282 8.30354V20.625C2.14282 21.4064 2.45325 22.1558 3.00581 22.7084C3.55837 23.261 4.30781 23.5714 5.08925 23.5714H24.9107C25.6921 23.5714 26.4416 23.261 26.9941 22.7084C27.5467 22.1558 27.8571 21.4064 27.8571 20.625V8.30354C27.8571 7.5221 27.5467 6.77267 26.9941 6.22011C26.4416 5.66754 25.6921 5.35712 24.9107 5.35712H5.08925ZM3.74997 20.625V12.3214H26.25V20.625C26.25 21.3643 25.65 21.9643 24.9107 21.9643H5.08925C4.34997 21.9643 3.74997 21.3643 3.74997 20.625ZM3.74997 10.7143V8.30354C3.74997 7.56426 4.34997 6.96426 5.08925 6.96426H24.9107C25.65 6.96426 26.25 7.56426 26.25 8.30354V10.7143H3.74997Z" fill="#B1B5C4"/>
</svg>
