<svg width="32" height="32" viewBox="0 0 32 32" fill="none" xmlns="http://www.w3.org/2000/svg">
<path d="M16 11.9202L22.058 9.50024L7.058 3.50024L1.886 5.56824C1.62505 5.67212 1.37998 5.81216 1.158 5.98424L16 11.9222V11.9202ZM0.0700007 7.70624C0.0233474 7.91841 -0.000123711 8.13501 4.90333e-07 8.35224V23.6442C-9.96794e-05 24.2439 0.179531 24.8299 0.51571 25.3265C0.851889 25.8231 1.32919 26.2076 1.886 26.4302L13.4 31.0362C13.92 31.2442 14.456 31.3862 15 31.4642V13.6762L0.0700007 7.70424V7.70624ZM17 31.4662C17.5484 31.3874 18.0855 31.2437 18.6 31.0382L30.114 26.4322C30.6711 26.2094 31.1486 25.8247 31.4849 25.3277C31.8211 24.8307 32.0005 24.2443 32 23.6442V8.35224C32 8.13224 31.976 7.91424 31.93 7.70424L17 13.6762V31.4642V31.4662ZM30.842 5.98624L24.75 8.42424L9.75 2.42424L13.4 0.960242C15.069 0.29255 16.931 0.29255 18.6 0.960242L30.114 5.56624C30.3749 5.67015 30.62 5.81018 30.842 5.98224V5.98624Z" fill="#09B530"/>
</svg>
