<svg width="30" height="30" viewBox="0 0 30 30" fill="none" xmlns="http://www.w3.org/2000/svg">
<path d="M26.606 27.496H27.468C27.7064 27.4908 27.9336 27.3932 28.1015 27.2238C28.2694 27.0545 28.3649 26.8265 28.368 26.588V9.25098C28.3681 9.15265 28.3519 9.05499 28.32 8.96198C28.2851 8.83126 28.2161 8.71219 28.12 8.61698L26.428 6.81698C25.4746 5.80298 24.5213 4.79331 23.568 3.78798C23.336 3.53598 23.106 3.29398 22.878 3.05398L22.713 2.87998C22.6202 2.76916 22.5053 2.67898 22.3756 2.61526C22.246 2.55153 22.1044 2.51567 21.96 2.50998H8.45598C8.22201 2.48778 7.98603 2.50093 7.75598 2.54898C7.44711 2.70322 7.1794 2.92877 6.97498 3.20698L1.90898 8.59598C1.85295 8.65489 1.80426 8.72037 1.76398 8.79098C1.68104 8.92801 1.63648 9.08482 1.63498 9.24498V26.556C1.63308 26.8001 1.72743 27.035 1.89757 27.2101C2.06771 27.3851 2.29995 27.486 2.54398 27.491L26.606 27.496ZM8.41698 4.31598H21.586L25.366 8.33398L18.23 8.34098H4.63198L8.41698 4.31598ZM17.193 10.147V15.447L15.42 14.515C15.2816 14.4367 15.1268 14.3919 14.968 14.384C14.7961 14.3913 14.6281 14.4367 14.476 14.517L12.714 15.445V10.145L17.193 10.147ZM3.43498 10.147H10.898V16.947C10.9 17.1056 10.9428 17.2611 11.0223 17.3984C11.1018 17.5358 11.2154 17.6503 11.352 17.731C11.4922 17.8096 11.6502 17.851 11.811 17.851C11.9717 17.851 12.1298 17.8096 12.27 17.731L14.952 16.325L17.619 17.725C17.7615 17.8086 17.9235 17.8535 18.0888 17.8551C18.2541 17.8567 18.4169 17.8149 18.561 17.734C18.6964 17.6527 18.8086 17.538 18.8868 17.4009C18.9651 17.2638 19.0068 17.1089 19.008 16.951V10.151H26.557V25.684H3.43498V10.147Z" fill="#B1B5C4"/>
</svg>
