<svg width="30" height="30" viewBox="0 0 30 30" fill="none" xmlns="http://www.w3.org/2000/svg">
<path d="M28.125 10.0125L26.25 4.38749C26.1848 4.19345 26.0578 4.02609 25.8885 3.91098C25.7192 3.79586 25.5169 3.73932 25.3125 3.74999H4.6875C4.48306 3.73932 4.28075 3.79586 4.11147 3.91098C3.94218 4.02609 3.81523 4.19345 3.75 4.38749L1.875 10.0125C1.86149 10.112 1.86149 10.2129 1.875 10.3125V15.9375C1.875 16.1861 1.97377 16.4246 2.14959 16.6004C2.3254 16.7762 2.56386 16.875 2.8125 16.875H3.75V26.25H5.625V16.875H11.25V26.25H26.25V16.875H27.1875C27.4361 16.875 27.6746 16.7762 27.8504 16.6004C28.0262 16.4246 28.125 16.1861 28.125 15.9375V10.3125C28.1385 10.2129 28.1385 10.112 28.125 10.0125ZM24.375 24.375H13.125V16.875H24.375V24.375ZM26.25 15H22.5V11.25H20.625V15H15.9375V11.25H14.0625V15H9.375V11.25H7.5V15H3.75V10.4625L5.3625 5.62499H24.6375L26.25 10.4625V15Z" fill="#B1B5C4"/>
</svg>
