<svg width="38" height="28" viewBox="0 0 38 28" fill="none" xmlns="http://www.w3.org/2000/svg">
<path fill-rule="evenodd" clip-rule="evenodd" d="M25.9305 7.72126C25.9305 11.6374 22.8086 14.7775 18.9151 14.7775C15.0216 14.7775 11.8996 11.6374 11.8996 7.72126C11.8996 3.80362 15.0216 0.666504 18.9151 0.666504C22.8086 0.666504 25.9305 3.80362 25.9305 7.72126ZM18.9151 27.3332C13.1964 27.3332 8.3135 26.4266 8.3135 22.8001C8.3135 19.1722 13.1651 18.2325 18.9151 18.2325C24.6337 18.2325 29.5166 19.1392 29.5166 22.7671C29.5166 26.3935 24.665 27.3332 18.9151 27.3332ZM28.9285 7.84854C28.9285 9.84489 28.3331 11.7046 27.2884 13.2507C27.181 13.4098 27.2765 13.6244 27.466 13.6575C27.7272 13.7025 27.9973 13.728 28.2719 13.7355C31.0103 13.8076 33.4682 12.0349 34.1472 9.36607C35.153 5.40189 32.1997 1.843 28.439 1.843C28.0301 1.843 27.6391 1.88653 27.2586 1.96458C27.2064 1.97659 27.1511 2.0006 27.1213 2.04713C27.0855 2.10417 27.1123 2.18072 27.1481 2.23026C28.2778 3.82283 28.9285 5.76514 28.9285 7.84854ZM33.4637 16.5208C35.3038 16.8825 36.5141 17.621 37.0155 18.6943C37.4393 19.5753 37.4393 20.5975 37.0155 21.4771C36.2484 23.1417 33.7756 23.6761 32.8146 23.8142C32.6161 23.8442 32.4564 23.6716 32.4773 23.472C32.9683 18.8594 29.0628 16.6724 28.0525 16.1695C28.0092 16.147 28.0003 16.1125 28.0048 16.0915C28.0077 16.0765 28.0256 16.0525 28.0585 16.048C30.2448 16.0074 32.5952 16.3076 33.4637 16.5208ZM9.72854 13.7354C10.0031 13.7279 10.2717 13.7038 10.5344 13.6573C10.7239 13.6243 10.8194 13.4096 10.712 13.2505C9.66735 11.7045 9.07191 9.84474 9.07191 7.84839C9.07191 5.76499 9.72257 3.82268 10.8523 2.23011C10.8881 2.18057 10.9135 2.10402 10.8791 2.04698C10.8493 2.00195 10.7926 1.97644 10.7418 1.96443C10.3598 1.88638 9.9688 1.84285 9.5599 1.84285C5.79921 1.84285 2.84587 5.40174 3.8532 9.36591C4.53222 12.0347 6.9901 13.8074 9.72854 13.7354ZM9.99492 16.0906C9.99939 16.1131 9.99044 16.1461 9.94866 16.1701C8.93685 16.673 5.0314 18.86 5.52238 23.4711C5.54327 23.6722 5.38509 23.8433 5.18661 23.8148C4.22554 23.6767 1.75274 23.1423 0.985674 21.4777C0.560358 20.5966 0.560358 19.5759 0.985674 18.6949C1.4871 17.6216 2.69589 16.8831 4.53595 16.5199C5.40598 16.3082 7.75492 16.008 9.94269 16.0486C9.97552 16.0531 9.99193 16.0771 9.99492 16.0906Z" fill="#FFB600"/>
</svg>
