<svg width="30" height="30" viewBox="0 0 30 30" fill="none" xmlns="http://www.w3.org/2000/svg">
<path d="M15.25 6.25C15.25 8.45914 13.4591 10.25 11.25 10.25C9.04086 10.25 7.25 8.45914 7.25 6.25C7.25 4.04086 9.04086 2.25 11.25 2.25C13.4591 2.25 15.25 4.04086 15.25 6.25Z" stroke="#fff" stroke-width="2"/>
<path d="M9.375 23.75H2.25C1.69772 23.75 1.25 23.302 1.25 22.7498C1.25 21.0973 1.25 20.1778 1.25 19.09C1.25 17.0058 2.54286 15.1402 4.49438 14.4084L5.40106 14.0684C5.96244 13.8578 6.55711 13.75 7.15667 13.75H10" stroke="#fff" stroke-width="2" stroke-linecap="round" stroke-linejoin="round"/>
<mask id="path-3-inside-1_2096_21248" fill="#fff">
<path d="M27.3202 20.5774C27.1774 20.4178 27.0986 20.2125 27.0986 20C27.0986 19.7875 27.1774 19.5822 27.3202 19.4226L28.4602 18.1627C28.5858 18.0251 28.6638 17.8519 28.683 17.668C28.7022 17.4841 28.6616 17.299 28.5671 17.1391L26.7858 14.1121C26.6922 13.9524 26.5497 13.8259 26.3785 13.7505C26.2074 13.675 26.0164 13.6546 25.8328 13.6921L24.1584 14.0246C23.9453 14.0678 23.7235 14.033 23.5349 13.9266C23.3462 13.8202 23.2036 13.6497 23.1342 13.4471L22.5909 11.8461C22.5311 11.6723 22.4173 11.5214 22.2655 11.4147C22.1136 11.3079 21.9315 11.2507 21.7448 11.2512H18.1822C17.988 11.2412 17.7958 11.294 17.635 11.4014C17.4742 11.5088 17.3536 11.665 17.2916 11.8461L16.7928 13.4471C16.7234 13.6497 16.5808 13.8202 16.3921 13.9266C16.2035 14.033 15.9817 14.0678 15.7686 14.0246L14.0497 13.6921C13.8756 13.6679 13.6981 13.6949 13.5396 13.7697C13.3812 13.8444 13.2487 13.9635 13.159 14.1121L11.3778 17.1391C11.2808 17.2972 11.2372 17.4813 11.2532 17.6651C11.2692 17.849 11.344 18.0232 11.4668 18.1627L12.5979 19.4226C12.7407 19.5822 12.8195 19.7875 12.8195 20C12.8195 20.2125 12.7407 20.4178 12.5979 20.5774L11.4668 21.8373C11.344 21.9768 11.2692 22.151 11.2532 22.3349C11.2372 22.5187 11.2808 22.7028 11.3778 22.8609L13.159 25.8879C13.2526 26.0476 13.3952 26.1741 13.5663 26.2495C13.7374 26.325 13.9284 26.3454 14.112 26.3079L15.7864 25.9754C15.9995 25.9322 16.2213 25.967 16.41 26.0734C16.5987 26.1798 16.7412 26.3503 16.8106 26.5529L17.3539 28.1539C17.4159 28.335 17.5365 28.4912 17.6973 28.5986C17.8582 28.706 18.0504 28.7588 18.2446 28.7488H21.8071C21.9938 28.7493 22.176 28.6921 22.3278 28.5853C22.4796 28.4786 22.5935 28.3277 22.6532 28.1539L23.1965 26.5529C23.266 26.3503 23.4085 26.1798 23.5972 26.0734C23.7859 25.967 24.0077 25.9322 24.2207 25.9754L25.8951 26.3079C26.0788 26.3454 26.2698 26.325 26.4409 26.2495C26.612 26.1741 26.7545 26.0476 26.8481 25.8879L28.6294 22.8609C28.724 22.701 28.7646 22.5159 28.7454 22.332C28.7262 22.1481 28.6481 21.9749 28.5225 21.8373L27.3202 20.5774ZM25.9931 21.7498L26.7056 22.5372L25.5656 24.4794L24.5147 24.2694C23.8732 24.1406 23.2059 24.2477 22.6395 24.5702C22.0731 24.8928 21.6469 25.4084 21.442 26.0192L21.1035 26.999H18.8235L18.5029 26.0017C18.2979 25.3909 17.8717 24.8753 17.3053 24.5527C16.7389 24.2302 16.0716 24.1231 15.4302 24.2519L14.3792 24.4619L13.2214 22.5284L13.9339 21.741C14.372 21.2598 14.6143 20.6369 14.6143 19.9913C14.6143 19.3456 14.372 18.7227 13.9339 18.2415L13.2214 17.4541L14.3614 15.5294L15.4123 15.7393C16.0538 15.8681 16.7211 15.7611 17.2875 15.4385C17.8539 15.116 18.2801 14.6004 18.485 13.9896L18.8235 13.001H21.1035L21.442 13.9983C21.6469 14.6091 22.0731 15.1247 22.6395 15.4473C23.2059 15.7698 23.8732 15.8769 24.5147 15.7481L25.5656 15.5381L26.7056 17.4803L25.9931 18.2677C25.5599 18.7478 25.3207 19.3672 25.3207 20.0087C25.3207 20.6503 25.5599 21.2697 25.9931 21.7498ZM19.9635 16.5005C19.2589 16.5005 18.5701 16.7057 17.9843 17.0903C17.3984 17.4748 16.9418 18.0213 16.6721 18.6608C16.4025 19.3002 16.3319 20.0039 16.4694 20.6827C16.6069 21.3616 16.9462 21.9851 17.4444 22.4745C17.9426 22.964 18.5774 23.2973 19.2685 23.4323C19.9595 23.5673 20.6759 23.498 21.3268 23.2331C21.9778 22.9683 22.5342 22.5197 22.9257 21.9442C23.3171 21.3687 23.526 20.6921 23.526 20C23.526 19.0719 23.1507 18.1818 22.4826 17.5255C21.8145 16.8692 20.9083 16.5005 19.9635 16.5005ZM19.9635 21.7498C19.6112 21.7498 19.2668 21.6471 18.9739 21.4549C18.6809 21.2626 18.4526 20.9893 18.3178 20.6696C18.183 20.3499 18.1477 19.9981 18.2165 19.6586C18.2852 19.3192 18.4548 19.0074 18.704 18.7627C18.9531 18.518 19.2705 18.3514 19.616 18.2839C19.9615 18.2163 20.3197 18.251 20.6452 18.3834C20.9707 18.5159 21.2488 18.7401 21.4446 19.0279C21.6403 19.3156 21.7448 19.6539 21.7448 20C21.7448 20.4641 21.5571 20.9091 21.2231 21.2373C20.889 21.5654 20.4359 21.7498 19.9635 21.7498Z"/>
</mask>
<path d="M27.3202 20.5774C27.1774 20.4178 27.0986 20.2125 27.0986 20C27.0986 19.7875 27.1774 19.5822 27.3202 19.4226L28.4602 18.1627C28.5858 18.0251 28.6638 17.8519 28.683 17.668C28.7022 17.4841 28.6616 17.299 28.5671 17.1391L26.7858 14.1121C26.6922 13.9524 26.5497 13.8259 26.3785 13.7505C26.2074 13.675 26.0164 13.6546 25.8328 13.6921L24.1584 14.0246C23.9453 14.0678 23.7235 14.033 23.5349 13.9266C23.3462 13.8202 23.2036 13.6497 23.1342 13.4471L22.5909 11.8461C22.5311 11.6723 22.4173 11.5214 22.2655 11.4147C22.1136 11.3079 21.9315 11.2507 21.7448 11.2512H18.1822C17.988 11.2412 17.7958 11.294 17.635 11.4014C17.4742 11.5088 17.3536 11.665 17.2916 11.8461L16.7928 13.4471C16.7234 13.6497 16.5808 13.8202 16.3921 13.9266C16.2035 14.033 15.9817 14.0678 15.7686 14.0246L14.0497 13.6921C13.8756 13.6679 13.6981 13.6949 13.5396 13.7697C13.3812 13.8444 13.2487 13.9635 13.159 14.1121L11.3778 17.1391C11.2808 17.2972 11.2372 17.4813 11.2532 17.6651C11.2692 17.849 11.344 18.0232 11.4668 18.1627L12.5979 19.4226C12.7407 19.5822 12.8195 19.7875 12.8195 20C12.8195 20.2125 12.7407 20.4178 12.5979 20.5774L11.4668 21.8373C11.344 21.9768 11.2692 22.151 11.2532 22.3349C11.2372 22.5187 11.2808 22.7028 11.3778 22.8609L13.159 25.8879C13.2526 26.0476 13.3952 26.1741 13.5663 26.2495C13.7374 26.325 13.9284 26.3454 14.112 26.3079L15.7864 25.9754C15.9995 25.9322 16.2213 25.967 16.41 26.0734C16.5987 26.1798 16.7412 26.3503 16.8106 26.5529L17.3539 28.1539C17.4159 28.335 17.5365 28.4912 17.6973 28.5986C17.8582 28.706 18.0504 28.7588 18.2446 28.7488H21.8071C21.9938 28.7493 22.176 28.6921 22.3278 28.5853C22.4796 28.4786 22.5935 28.3277 22.6532 28.1539L23.1965 26.5529C23.266 26.3503 23.4085 26.1798 23.5972 26.0734C23.7859 25.967 24.0077 25.9322 24.2207 25.9754L25.8951 26.3079C26.0788 26.3454 26.2698 26.325 26.4409 26.2495C26.612 26.1741 26.7545 26.0476 26.8481 25.8879L28.6294 22.8609C28.724 22.701 28.7646 22.5159 28.7454 22.332C28.7262 22.1481 28.6481 21.9749 28.5225 21.8373L27.3202 20.5774ZM25.9931 21.7498L26.7056 22.5372L25.5656 24.4794L24.5147 24.2694C23.8732 24.1406 23.2059 24.2477 22.6395 24.5702C22.0731 24.8928 21.6469 25.4084 21.442 26.0192L21.1035 26.999H18.8235L18.5029 26.0017C18.2979 25.3909 17.8717 24.8753 17.3053 24.5527C16.7389 24.2302 16.0716 24.1231 15.4302 24.2519L14.3792 24.4619L13.2214 22.5284L13.9339 21.741C14.372 21.2598 14.6143 20.6369 14.6143 19.9913C14.6143 19.3456 14.372 18.7227 13.9339 18.2415L13.2214 17.4541L14.3614 15.5294L15.4123 15.7393C16.0538 15.8681 16.7211 15.7611 17.2875 15.4385C17.8539 15.116 18.2801 14.6004 18.485 13.9896L18.8235 13.001H21.1035L21.442 13.9983C21.6469 14.6091 22.0731 15.1247 22.6395 15.4473C23.2059 15.7698 23.8732 15.8769 24.5147 15.7481L25.5656 15.5381L26.7056 17.4803L25.9931 18.2677C25.5599 18.7478 25.3207 19.3672 25.3207 20.0087C25.3207 20.6503 25.5599 21.2697 25.9931 21.7498ZM19.9635 16.5005C19.2589 16.5005 18.5701 16.7057 17.9843 17.0903C17.3984 17.4748 16.9418 18.0213 16.6721 18.6608C16.4025 19.3002 16.3319 20.0039 16.4694 20.6827C16.6069 21.3616 16.9462 21.9851 17.4444 22.4745C17.9426 22.964 18.5774 23.2973 19.2685 23.4323C19.9595 23.5673 20.6759 23.498 21.3268 23.2331C21.9778 22.9683 22.5342 22.5197 22.9257 21.9442C23.3171 21.3687 23.526 20.6921 23.526 20C23.526 19.0719 23.1507 18.1818 22.4826 17.5255C21.8145 16.8692 20.9083 16.5005 19.9635 16.5005ZM19.9635 21.7498C19.6112 21.7498 19.2668 21.6471 18.9739 21.4549C18.6809 21.2626 18.4526 20.9893 18.3178 20.6696C18.183 20.3499 18.1477 19.9981 18.2165 19.6586C18.2852 19.3192 18.4548 19.0074 18.704 18.7627C18.9531 18.518 19.2705 18.3514 19.616 18.2839C19.9615 18.2163 20.3197 18.251 20.6452 18.3834C20.9707 18.5159 21.2488 18.7401 21.4446 19.0279C21.6403 19.3156 21.7448 19.6539 21.7448 20C21.7448 20.4641 21.5571 20.9091 21.2231 21.2373C20.889 21.5654 20.4359 21.7498 19.9635 21.7498Z" stroke="#fff" stroke-width="2" mask="url(#path-3-inside-1_2096_21248)"/>
</svg>
