<svg width="20" height="21" viewBox="0 0 20 21" fill="none" xmlns="http://www.w3.org/2000/svg">
<path d="M11.2126 6.71255C11.3887 6.54491 11.623 6.45224 11.8661 6.45408C12.1092 6.45592 12.3421 6.55213 12.5156 6.72241C12.6892 6.8927 12.7898 7.12373 12.7962 7.36677C12.8026 7.60981 12.7144 7.84584 12.5501 8.02505L7.56258 14.2626C7.47681 14.3549 7.37331 14.4291 7.25824 14.4805C7.14317 14.532 7.01891 14.5597 6.89289 14.562C6.76686 14.5644 6.64166 14.5413 6.52477 14.4941C6.40788 14.4469 6.3017 14.3767 6.21257 14.2876L2.90507 10.9801C2.81297 10.8942 2.73909 10.7907 2.68785 10.6757C2.63661 10.5607 2.60906 10.4366 2.60684 10.3107C2.60461 10.1848 2.62777 10.0598 2.67492 9.94306C2.72207 9.82632 2.79225 9.72028 2.88128 9.63126C2.9703 9.54223 3.07634 9.47205 3.19308 9.4249C3.30981 9.37775 3.43485 9.35459 3.56073 9.35681C3.68661 9.35904 3.81075 9.38659 3.92575 9.43783C4.04075 9.48907 4.14425 9.56295 4.23007 9.65505L6.84758 12.2713L11.1876 6.74005C11.1954 6.7304 11.2037 6.72122 11.2126 6.71255ZM10.0626 13.1376L11.2126 14.2876C11.3017 14.3765 11.4078 14.4466 11.5246 14.4936C11.6413 14.5407 11.7664 14.5637 11.8923 14.5614C12.0181 14.559 12.1422 14.5314 12.2572 14.48C12.3721 14.4287 12.4756 14.3547 12.5613 14.2626L17.5513 8.02505C17.641 7.93656 17.7118 7.8309 17.7597 7.7144C17.8076 7.5979 17.8316 7.47294 17.8301 7.34698C17.8286 7.22102 17.8018 7.09666 17.7512 6.9813C17.7006 6.86595 17.6273 6.76197 17.5356 6.67559C17.4439 6.58921 17.3358 6.52218 17.2176 6.47852C17.0995 6.43486 16.9737 6.41546 16.8479 6.42148C16.7221 6.4275 16.5988 6.45881 16.4853 6.51354C16.3718 6.56828 16.2706 6.64532 16.1876 6.74005L11.8463 12.2713L11.2401 11.6638L10.0613 13.1376H10.0626Z" fill="#0072F8"/>
</svg>
