<svg xmlns="http://www.w3.org/2000/svg" width="30" height="30" viewBox="0 0 30 30">
  <g id="Delivery" transform="translate(1 2)">
    <g id="Rectangle_30" data-name="Rectangle 30" transform="translate(-1 -2)" fill="#fff" stroke="#707070" stroke-width="1" opacity="0">
      <rect width="30" height="30" stroke="none"/>
      <rect x="0.5" y="0.5" width="29" height="29" fill="none"/>
    </g>
    <path id="delivery-truck" d="M18.367,12.014h7.014v-.285L22.067,8.507h-3.7Zm0,1.169v4.091a2.924,2.924,0,0,1,5.018.585h2V13.183ZM17.2,17.86V6.169H3.169V17.86H4a2.924,2.924,0,0,1,5.359,0ZM18.367,7.338h4.175l4.008,3.9V17.86a1.169,1.169,0,0,1-1.169,1.169H23.627a2.923,2.923,0,0,1-5.845,0H9.6a2.923,2.923,0,0,1-5.845,0H3.169A1.169,1.169,0,0,1,2,17.86V6.169A1.169,1.169,0,0,1,3.169,5H17.2a1.169,1.169,0,0,1,1.169,1.169ZM6.676,20.782a1.754,1.754,0,1,0-1.754-1.754A1.754,1.754,0,0,0,6.676,20.782Zm14.029,0a1.754,1.754,0,1,0-1.754-1.754A1.754,1.754,0,0,0,20.7,20.782Z" transform="translate(-0.275 -0.476)" fill="#fff" stroke="#fff" stroke-linecap="round" stroke-linejoin="round" stroke-width="0.5"/>
  </g>
</svg>
