<svg width="48" height="48" viewBox="0 0 48 48" fill="none" xmlns="http://www.w3.org/2000/svg">
<path fill-rule="evenodd" clip-rule="evenodd" d="M43.1715 6.60784H27.9765V3.02734L3 6.88234V40.6728L27.9765 44.9748V39.6678H43.1715C43.6317 39.6912 44.0824 39.5313 44.425 39.2232C44.7677 38.9151 44.9744 38.4839 45 38.0238V8.25034C44.974 7.79054 44.7672 7.35969 44.4245 7.05194C44.0819 6.74418 43.6314 6.58452 43.1715 6.60784ZM43.4115 38.2968H27.9255L27.9 35.4633H31.6305V32.1633H27.8715L27.8535 30.2133H31.6305V26.9133H27.825L27.807 24.9633H31.6305V21.6633H27.795V19.7133H31.6305V16.4133H27.795V14.4633H31.6305V11.1633H27.795V8.16334H43.4115V38.2968Z" fill="#353945"/>
<path d="M33.7305 11.1582H40.215V14.4582H33.7305V11.1582ZM33.7305 16.4097H40.215V19.7097H33.7305V16.4097ZM33.7305 21.6612H40.215V24.9612H33.7305V21.6612ZM33.7305 26.9127H40.215V30.2127H33.7305V26.9127ZM33.7305 32.1642H40.215V35.4642H33.7305V32.1642Z" fill="#353945"/>
<path fill-rule="evenodd" clip-rule="evenodd" d="M9.52014 16.0087L12.7391 15.8242L14.7626 21.3877L17.1536 15.5947L20.3726 15.4102L16.4636 23.3092L20.3726 31.2277L16.9691 30.9982L14.6711 24.9622L12.3716 30.7687L9.24414 30.4927L12.8771 23.4982L9.52014 16.0087Z" fill="white"/>
</svg>
