<svg xmlns="http://www.w3.org/2000/svg" width="20" height="20" viewBox="0 0 20 20">
  <g id="Group_3975" data-name="Group 3975" transform="translate(-1532.968 -246)">
    <rect id="Rectangle_2377" data-name="Rectangle 2377" width="20" height="20" transform="translate(1532.968 246)" fill="#fff" opacity="0"/>
    <path id="Path_9320" data-name="Path 9320" d="M-35911.973-23002.328a1.006,1.006,0,0,1-1-1v-9.779a1,1,0,0,1,1-1h5.3v2.145h-4.2v7.49h11.535v-7.49h-3.676v-2.145h4.777a1,1,0,0,1,1,1v9.779a1,1,0,0,1-1,1Zm6.059-5.336v-9l-1.426,1.416-1.3-1.289,3.785-3.785,3.8,3.785-1.3,1.289-1.422-1.416v9Z" transform="translate(37447.902 23267.328)" fill="#2c3a57"/>
  </g>
</svg>
