<svg xmlns="http://www.w3.org/2000/svg" width="22" height="22" viewBox="0 0 22 22">
  <g id="Group_978" data-name="Group 978" transform="translate(-1692 -293)">
    <rect id="Rectangle_2334" data-name="Rectangle 2334" width="22" height="22" transform="translate(1692 293)" fill="rgba(0,0,0,0)" opacity="0"/>
    <path id="Path_5133" data-name="Path 5133" d="M10-19.722a4.621,4.621,0,0,0-1.085.174,2.274,2.274,0,0,1,.251.938,1.945,1.945,0,0,1-1.944,1.944,2.274,2.274,0,0,1-.938-.251,4.654,4.654,0,0,0-.152,1.075,3.88,3.88,0,0,0,3.879,3.879,3.88,3.88,0,0,0,3.879-3.879,3.88,3.88,0,0,0-3.879-3.879Zm9.879,3.382A11.137,11.137,0,0,0,10-22.5,11.138,11.138,0,0,0,.121-16.34,1.332,1.332,0,0,0,0-15.833a1.332,1.332,0,0,0,.121.507A11.137,11.137,0,0,0,10-9.167a11.138,11.138,0,0,0,9.879-6.16A1.332,1.332,0,0,0,20-15.833,1.332,1.332,0,0,0,19.879-16.34ZM10-10.833a9.445,9.445,0,0,1-8.261-5,9.445,9.445,0,0,1,8.261-5,9.445,9.445,0,0,1,8.261,5A9.445,9.445,0,0,1,10-10.833Z" transform="translate(1693 320)" fill="#09b530"/>
  </g>
</svg>
