<svg xmlns="http://www.w3.org/2000/svg" width="30" height="30" viewBox="0 0 30 30">
  <g id="FAQs" transform="translate(1 2)">
    <g id="Rectangle_30" data-name="Rectangle 30" transform="translate(-1 -2)" fill="#fff" stroke="#707070" stroke-width="1" opacity="0">
      <rect width="30" height="30" stroke="none"/>
      <rect x="0.5" y="0.5" width="29" height="29" fill="none"/>
    </g>
    <g id="faq" transform="translate(-0.833 -8.576)">
      <path id="Path_5364" data-name="Path 5364" d="M29.665,22.706c0-3.88-3.87-7.041-8.631-7.041A10.053,10.053,0,0,0,16.5,16.713,8.893,8.893,0,0,0,8.64,12.56C3.875,12.56,0,15.717,0,19.6a6.442,6.442,0,0,0,2.475,4.932l-.1,2.257a.665.665,0,0,0,.978.616l2.23-1.21a10.219,10.219,0,0,0,3.045.454,10.045,10.045,0,0,0,4.529-1.057,8.866,8.866,0,0,0,7.871,4.162,10.359,10.359,0,0,0,3.041-.45l2.23,1.21a.636.636,0,0,0,.315.079.665.665,0,0,0,.663-.691l-.093-2.257A6.463,6.463,0,0,0,29.665,22.706Zm-21.03,2.6a8.8,8.8,0,0,1-2.892-.473.65.65,0,0,0-.533.046l-1.451.788.06-1.423a.654.654,0,0,0-.264-.556A5.151,5.151,0,0,1,1.33,19.6c0-3.147,3.277-5.711,7.305-5.711,3.245,0,6,1.669,6.948,3.968,0,.009.009.014.009.023a4.523,4.523,0,0,1,.343,1.724C15.931,22.748,12.659,25.311,8.635,25.311ZM26.11,26.795a.666.666,0,0,0-.264.556l.056,1.423-1.451-.788a.669.669,0,0,0-.533-.046,8.822,8.822,0,0,1-2.892.473,7.512,7.512,0,0,1-6.735-3.518,6.569,6.569,0,0,0,2.967-5.3,5.823,5.823,0,0,0-.25-1.659,8.7,8.7,0,0,1,4.023-.95c4.028,0,7.305,2.563,7.305,5.715A5.132,5.132,0,0,1,26.11,26.795Z" fill="#fff"/>
      <path id="Path_5365" data-name="Path 5365" d="M17.009,26.172a.38.38,0,0,0-.185-.1.967.967,0,0,0-.283-.032,1.072,1.072,0,0,0-.3.032.386.386,0,0,0-.181.1.429.429,0,0,0-.1.195,1.71,1.71,0,0,0-.023.3,1.751,1.751,0,0,0,.023.3.4.4,0,0,0,.1.185.386.386,0,0,0,.181.1,1.05,1.05,0,0,0,.3.032.988.988,0,0,0,.283-.032.38.38,0,0,0,.185-.1.4.4,0,0,0,.1-.185,1.315,1.315,0,0,0,.028-.3,1.344,1.344,0,0,0-.028-.3A.429.429,0,0,0,17.009,26.172Zm.941-4.3a1.621,1.621,0,0,0-.579-.371,2.439,2.439,0,0,0-.853-.134,2.509,2.509,0,0,0-.422.032,3.085,3.085,0,0,0-.366.083,2.029,2.029,0,0,0-.287.1.586.586,0,0,0-.158.1.211.211,0,0,0-.056.111,1.316,1.316,0,0,0-.009.218,1.79,1.79,0,0,0,.009.236.491.491,0,0,0,.028.144.127.127,0,0,0,.042.07.07.07,0,0,0,.051.019.284.284,0,0,0,.121-.042,1.978,1.978,0,0,1,.195-.093,2.025,2.025,0,0,1,.283-.093,1.591,1.591,0,0,1,.38-.042,1.223,1.223,0,0,1,.413.065.807.807,0,0,1,.3.185.869.869,0,0,1,.172.292,1.225,1.225,0,0,1,.056.375,1.18,1.18,0,0,1-.051.343.713.713,0,0,1-.153.278.723.723,0,0,1-.269.19.967.967,0,0,1-.385.07h-.06a.735.735,0,0,0-.158.019.229.229,0,0,0-.111.07.278.278,0,0,0-.06.134,1.011,1.011,0,0,0-.014.222l.037,1a.136.136,0,0,0,.032.074.176.176,0,0,0,.079.046.833.833,0,0,0,.148.023c.06,0,.139,0,.236,0a1.2,1.2,0,0,0,.334-.037c.079-.023.116-.065.121-.111l.032-.825a1.618,1.618,0,0,0,.556-.158,1.291,1.291,0,0,0,.431-.324,1.5,1.5,0,0,0,.278-.482,1.867,1.867,0,0,0,.1-.626,1.9,1.9,0,0,0-.1-.635A1.548,1.548,0,0,0,17.95,21.875ZM29.4,26.765h0a.663.663,0,1,0,.663.663A.664.664,0,0,0,29.4,26.765Zm-2.878,0h0a.663.663,0,1,0,.663.663A.664.664,0,0,0,26.525,26.765Zm5.947,0h0a.663.663,0,1,0,.663.663A.664.664,0,0,0,32.472,26.765Z" transform="translate(-8.165 -4.726)" fill="#fff"/>
    </g>
  </g>
</svg>
