<svg xmlns="http://www.w3.org/2000/svg" width="30" height="30" viewBox="0 0 30 30">
  <g id="API" transform="translate(1 2)">
    <g id="Rectangle_30" data-name="Rectangle 30" transform="translate(-1 -2)" fill="#fff" stroke="#707070" stroke-width="1" opacity="0">
      <rect width="30" height="30" stroke="none"/>
      <rect x="0.5" y="0.5" width="29" height="29" fill="none"/>
    </g>
    <g id="api-2" data-name="api" transform="translate(-6 -7)">
      <path id="Path_5358" data-name="Path 5358" d="M6,6V27.358H34V6ZM7.5,7.937h25V21.674H7.5Z" transform="translate(0 3.642)" fill="#fff"/>
      <path id="Path_5359" data-name="Path 5359" d="M8.724-1.14a.964.964,0,0,1,.1.384.727.727,0,0,1-.27.57.917.917,0,0,1-.618.234A.809.809,0,0,1,7.5-.078a.8.8,0,0,1-.312-.378L6.552-1.872H2.484L1.848-.456a.81.81,0,0,1-.306.378A.8.8,0,0,1,1.1.048.939.939,0,0,1,.48-.186.721.721,0,0,1,.2-.756.964.964,0,0,1,.3-1.14l3.24-6.8a.939.939,0,0,1,.4-.438,1.124,1.124,0,0,1,.564-.15,1.112,1.112,0,0,1,.576.156,1.062,1.062,0,0,1,.408.432ZM5.916-3.288,4.524-6.408l-1.4,3.12ZM10.788.072A.924.924,0,0,1,10.1-.18a.924.924,0,0,1-.252-.684v-6.72a.877.877,0,0,1,.228-.648.877.877,0,0,1,.648-.228H13.74a3.084,3.084,0,0,1,2.148.7,2.49,2.49,0,0,1,.768,1.944,2.49,2.49,0,0,1-.768,1.944,3.084,3.084,0,0,1-2.148.7H11.724V-.864a.924.924,0,0,1-.252.684A.924.924,0,0,1,10.788.072ZM13.5-4.6q1.4,0,1.4-1.212T13.5-7.032H11.724V-4.6ZM18.8.072A.924.924,0,0,1,18.12-.18a.924.924,0,0,1-.252-.684V-7.6a.908.908,0,0,1,.252-.672A.924.924,0,0,1,18.8-8.52a.924.924,0,0,1,.684.252.908.908,0,0,1,.252.672V-.864a.924.924,0,0,1-.252.684A.924.924,0,0,1,18.8.072Z" transform="translate(10 23)" fill="#fff"/>
    </g>
  </g>
</svg>
