<svg id="Layer_2" data-name="Layer 2" xmlns="http://www.w3.org/2000/svg" width="28" height="28" viewBox="0 0 28 28">
  <path id="Path_37" data-name="Path 37" d="M5,26H6v3a1,1,0,0,0,1.406.914L16.212,26H23a3,3,0,0,0,3-3V15a1,1,0,0,0-2,0v8a1,1,0,0,1-1,1H16l-.008,0a1.007,1.007,0,0,0-.192.038,1.017,1.017,0,0,0-.2.044l-.008,0L8,27.461V25a1,1,0,0,0-1-1H5a1,1,0,0,1-1-1V9A1,1,0,0,1,5,8H16.92a1,1,0,0,0,0-2H5A3,3,0,0,0,2,9V23a3,3,0,0,0,3,3Z" transform="translate(-2 -2)" fill="#fff"/>
  <path id="Path_38" data-name="Path 38" d="M25,12a5,5,0,1,0-5-5,5,5,0,0,0,5,5Zm0-8a3,3,0,1,1-3,3A3,3,0,0,1,25,4Z" transform="translate(-2 -2)" fill="#fff"/>
  <path id="Path_39" data-name="Path 39" d="M7,12h5a1,1,0,0,0,0-2H7a1,1,0,0,0,0,2Z" transform="translate(-2 -2)" fill="#fff"/>
  <path id="Path_40" data-name="Path 40" d="M7,16h9a1,1,0,0,0,0-2H7a1,1,0,0,0,0,2Z" transform="translate(-2 -2)" fill="#fff"/>
</svg>
