<svg xmlns="http://www.w3.org/2000/svg" width="19" height="17" viewBox="0 0 19 17">
  <path id="Union_2" data-name="Union 2" d="M-4140-323v-1.778h18V-323Zm1.8-2.519.356-3.172,6.839-6.754.978-.965,2.094-2.07a1.811,1.811,0,0,1,1.272-.52,1.808,1.808,0,0,1,1.274.521l1.055,1.042a1.763,1.763,0,0,1,0,2.514l-2.1,2.069-.977.965-6.841,6.757-3.21.35a.512.512,0,0,1-.075,0A.669.669,0,0,1-4138.2-325.519Zm8.15-8.983-6.5,6.423-.212,1.88,1.9-.208,6.505-6.425.873-.862-1.691-1.671Zm3.072-3.035-1.245,1.23,1.69,1.671,1.246-1.23a.443.443,0,0,0,0-.629l-1.056-1.042a.449.449,0,0,0-.318-.13A.45.45,0,0,0-4126.973-337.537Z" transform="translate(4140.5 339.5)" fill="#09B530" stroke="rgba(0,0,0,0)" stroke-width="1"/>
</svg>
