<svg xmlns="http://www.w3.org/2000/svg" width="15.75" height="18" viewBox="0 0 15.75 18">
  <path id="Path_1954" data-name="Path 1954" d="M15.187-12.937h-2.9l-1.2-1.993a1.871,1.871,0,0,0-1.447-.819H6.1a1.871,1.871,0,0,0-1.447.819l-1.2,1.993H.562A.563.563,0,0,0,0-12.375v.562a.563.563,0,0,0,.562.562h.562L1.87.668A1.71,1.71,0,0,0,3.554,2.25H12.2A1.71,1.71,0,0,0,13.88.668l.745-11.918h.562a.563.563,0,0,0,.562-.562v-.562A.563.563,0,0,0,15.187-12.937ZM6.1-14.062H9.647l.675,1.125H5.428ZM12.2.562H3.555L2.816-11.25H12.934Z" transform="translate(0 15.75)" fill="#f80000"/>
</svg>
