<svg xmlns="http://www.w3.org/2000/svg" width="26" height="28.601" viewBox="0 0 26 28.601">
  <path id="coins_3_" data-name="coins (3)" d="M10.45,29.6A11.79,11.79,0,0,0,15,28.716a11.6,11.6,0,0,0,4.55.884c4.739,0,8.45-2.528,8.45-5.758V18.458c0-3.229-3.711-5.758-8.45-5.758-.22,0-.436.01-.65.022V6.633C18.9,3.47,15.188,1,10.45,1S2,3.47,2,6.633V23.967C2,27.13,5.711,29.6,10.45,29.6ZM25.4,23.842C25.4,25.336,23,27,19.55,27s-5.85-1.664-5.85-3.158v-1.2a10.828,10.828,0,0,0,5.85,1.574A10.828,10.828,0,0,0,25.4,22.64ZM19.55,15.3c3.448,0,5.85,1.664,5.85,3.158s-2.4,3.156-5.85,3.156S13.7,19.95,13.7,18.458,16.1,15.3,19.55,15.3ZM10.45,3.6c3.448,0,5.85,1.6,5.85,3.033s-2.4,3.034-5.85,3.034S4.6,8.068,4.6,6.633,7,3.6,10.45,3.6ZM4.6,10.727a11.006,11.006,0,0,0,5.85,1.54,11.006,11.006,0,0,0,5.85-1.54v2.4a8.411,8.411,0,0,0-3.77,2.089,10,10,0,0,1-2.08.226c-3.448,0-5.85-1.6-5.85-3.033Zm0,5.779a11.018,11.018,0,0,0,5.85,1.539c.231,0,.455-.029.682-.04a4.03,4.03,0,0,0-.032.454v2.711c-.218.013-.429.055-.65.055-3.448,0-5.85-1.6-5.85-3.034Zm0,5.777a11.006,11.006,0,0,0,5.85,1.541c.218,0,.433-.017.65-.027v.047a4.506,4.506,0,0,0,1.195,2.981A10.19,10.19,0,0,1,10.45,27C7,27,4.6,25.4,4.6,23.967Z" transform="translate(-2 -1)" fill="#fff"/>
</svg>
