<svg xmlns="http://www.w3.org/2000/svg" width="18.001" height="18.001" viewBox="0 0 18.001 18.001">
  <path id="search" d="M17.877.735,13.609-3.533a.417.417,0,0,0-.3-.123h-.464a7.293,7.293,0,0,0,1.779-4.781A7.311,7.311,0,0,0,7.312-15.75,7.311,7.311,0,0,0,0-8.437,7.311,7.311,0,0,0,7.312-1.125,7.293,7.293,0,0,0,12.094-2.9v.464a.432.432,0,0,0,.123.3l4.268,4.268a.422.422,0,0,0,.6,0l.795-.795A.422.422,0,0,0,17.877.735ZM7.312-2.812A5.623,5.623,0,0,1,1.687-8.437a5.623,5.623,0,0,1,5.625-5.625,5.623,5.623,0,0,1,5.625,5.625A5.623,5.623,0,0,1,7.312-2.812Z" transform="translate(0 15.75)" fill="#2c3a57"/>
</svg>
