<svg xmlns="http://www.w3.org/2000/svg" xmlns:xlink="http://www.w3.org/1999/xlink" width="20" height="20" viewBox="0 0 20 20">
  <defs>
    <clipPath id="clip-path">
      <rect id="Rectangle_394" data-name="Rectangle 394" width="20" height="20" fill="#09b530"/>
    </clipPath>
  </defs>
  <g id="print" clip-path="url(#clip-path)">
    <path id="printer-2" d="M8,11a1,1,0,1,0,1,1A1,1,0,0,0,8,11ZM20,7H19V4a1,1,0,0,0-1-1H8A1,1,0,0,0,7,4V7H6a3,3,0,0,0-3,3v6a3,3,0,0,0,3,3H7v3a1,1,0,0,0,1,1H18a1,1,0,0,0,1-1V19h1a3,3,0,0,0,3-3V10A3,3,0,0,0,20,7ZM9,5h8V7H9Zm8,16H9V17h8Zm4-5a1,1,0,0,1-1,1H19V16a1,1,0,0,0-1-1H8a1,1,0,0,0-1,1v1H6a1,1,0,0,1-1-1V10A1,1,0,0,1,6,9H20a1,1,0,0,1,1,1Z" transform="translate(-3 -3)" fill="#09b530"/>
  </g>
</svg>
