<svg xmlns="http://www.w3.org/2000/svg" width="47" height="28.234" viewBox="0 0 47 28.234">
  <path id="Path_9237" data-name="Path 9237" d="M-1521.708-7954.349a2.352,2.352,0,0,1,2.355-2.352,2.351,2.351,0,0,1,2.352,2.352,2.35,2.35,0,0,1-2.352,2.349A2.351,2.351,0,0,1-1521.708-7954.349Zm-11.764,0a2.352,2.352,0,0,1,2.355-2.352,2.351,2.351,0,0,1,2.352,2.352,2.35,2.35,0,0,1-2.352,2.349A2.351,2.351,0,0,1-1533.472-7954.349Zm-11.764,0a2.351,2.351,0,0,1,2.352-2.352,2.352,2.352,0,0,1,2.355,2.352c0,.021,0,.04,0,.061a2.351,2.351,0,0,1-2.354,2.288A2.351,2.351,0,0,1-1545.235-7954.349Zm23.527-14.1a2.352,2.352,0,0,1,2.355-2.349,2.351,2.351,0,0,1,2.352,2.349,2.351,2.351,0,0,1-2.352,2.35A2.352,2.352,0,0,1-1521.708-7968.451Zm-11.764,0a2.352,2.352,0,0,1,2.355-2.349,2.351,2.351,0,0,1,2.352,2.349,2.351,2.351,0,0,1-2.352,2.35A2.352,2.352,0,0,1-1533.472-7968.451Zm-11.764,0a2.351,2.351,0,0,1,2.352-2.349,2.352,2.352,0,0,1,2.355,2.349c0,.021,0,.041,0,.062a2.351,2.351,0,0,1-2.354,2.289A2.351,2.351,0,0,1-1545.235-7968.451Zm23.527-14.1a2.351,2.351,0,0,1,2.355-2.349,2.35,2.35,0,0,1,2.352,2.349,2.351,2.351,0,0,1-2.352,2.352A2.352,2.352,0,0,1-1521.708-7982.551Zm-11.764,0a2.351,2.351,0,0,1,2.355-2.349,2.35,2.35,0,0,1,2.352,2.349,2.351,2.351,0,0,1-2.352,2.352A2.352,2.352,0,0,1-1533.472-7982.551Zm-11.764,0a2.351,2.351,0,0,1,2.352-2.349,2.351,2.351,0,0,1,2.355,2.349c0,.021,0,.041,0,.061a2.352,2.352,0,0,1-2.354,2.291A2.351,2.351,0,0,1-1545.235-7982.551Zm23.527-14.1a2.354,2.354,0,0,1,2.355-2.352,2.353,2.353,0,0,1,2.352,2.352,2.351,2.351,0,0,1-2.352,2.35A2.352,2.352,0,0,1-1521.708-7996.649Zm-11.764,0a2.354,2.354,0,0,1,2.355-2.352,2.354,2.354,0,0,1,2.352,2.352,2.351,2.351,0,0,1-2.352,2.35A2.352,2.352,0,0,1-1533.472-7996.649Zm-11.764,0a2.354,2.354,0,0,1,2.352-2.352,2.354,2.354,0,0,1,2.355,2.352c0,.021,0,.041,0,.062a2.352,2.352,0,0,1-2.354,2.288A2.351,2.351,0,0,1-1545.235-7996.649Z" transform="translate(7999 -1517.001) rotate(-90)" fill="#dedede" opacity="0.5"/>
</svg>
