<svg width="18" height="19" viewBox="0 0 18 19" fill="none" xmlns="http://www.w3.org/2000/svg">
<path fill-rule="evenodd" clip-rule="evenodd" d="M0.916504 4.60002C0.916504 4.13978 1.2896 3.76668 1.74984 3.76668H16.7498C17.2101 3.76668 17.5832 4.13978 17.5832 4.60002C17.5832 5.06025 17.2101 5.43335 16.7498 5.43335H1.74984C1.2896 5.43335 0.916504 5.06025 0.916504 4.60002Z" fill="#F4F5F6"/>
<path fill-rule="evenodd" clip-rule="evenodd" d="M7.58317 2.10002C7.36216 2.10002 7.1502 2.18781 6.99392 2.34409C6.83763 2.50037 6.74984 2.71234 6.74984 2.93335V3.76668H11.7498V2.93335C11.7498 2.71234 11.662 2.50037 11.5058 2.34409C11.3495 2.18781 11.1375 2.10002 10.9165 2.10002H7.58317ZM13.4165 3.76668V2.93335C13.4165 2.27031 13.1531 1.63442 12.6843 1.16558C12.2154 0.696742 11.5795 0.43335 10.9165 0.43335H7.58317C6.92013 0.43335 6.28425 0.696742 5.8154 1.16558C5.34656 1.63442 5.08317 2.27031 5.08317 2.93335V3.76668H3.4165C2.95627 3.76668 2.58317 4.13978 2.58317 4.60002V16.2667C2.58317 16.9297 2.84656 17.5656 3.3154 18.0344C3.78424 18.5033 4.42013 18.7667 5.08317 18.7667H13.4165C14.0795 18.7667 14.7154 18.5033 15.1843 18.0344C15.6531 17.5656 15.9165 16.9297 15.9165 16.2667V4.60002C15.9165 4.13978 15.5434 3.76668 15.0832 3.76668H13.4165ZM4.24984 5.43335V16.2667C4.24984 16.4877 4.33763 16.6997 4.49392 16.8559C4.6502 17.0122 4.86216 17.1 5.08317 17.1H13.4165C13.6375 17.1 13.8495 17.0122 14.0058 16.8559C14.162 16.6997 14.2498 16.4877 14.2498 16.2667V5.43335H4.24984Z" fill="#F4F5F6"/>
<path fill-rule="evenodd" clip-rule="evenodd" d="M7.58317 7.93335C8.04341 7.93335 8.4165 8.30644 8.4165 8.76668V13.7667C8.4165 14.2269 8.04341 14.6 7.58317 14.6C7.12293 14.6 6.74984 14.2269 6.74984 13.7667V8.76668C6.74984 8.30644 7.12293 7.93335 7.58317 7.93335Z" fill="#F4F5F6"/>
<path fill-rule="evenodd" clip-rule="evenodd" d="M10.9165 7.93335C11.3767 7.93335 11.7498 8.30644 11.7498 8.76668V13.7667C11.7498 14.2269 11.3767 14.6 10.9165 14.6C10.4563 14.6 10.0832 14.2269 10.0832 13.7667V8.76668C10.0832 8.30644 10.4563 7.93335 10.9165 7.93335Z" fill="#F4F5F6"/>
</svg>
