<svg xmlns="http://www.w3.org/2000/svg" width="30" height="30" viewBox="0 0 30 30">
  <g id="Receipt" transform="translate(1 2)">
    <g id="Rectangle_30" data-name="Rectangle 30" transform="translate(-1 -2)" fill="#fff" stroke="#707070" stroke-width="1" opacity="0">
      <rect width="30" height="30" stroke="none"/>
      <rect x="0.5" y="0.5" width="29" height="29" fill="none"/>
    </g>
    <path id="Path_9331" data-name="Path 9331" d="M14.781-8.937H4.469a.345.345,0,0,0-.344.344v.687a.345.345,0,0,0,.344.344H14.781a.345.345,0,0,0,.344-.344v-.687A.345.345,0,0,0,14.781-8.937Zm0,4.125H4.469a.345.345,0,0,0-.344.344v.687a.345.345,0,0,0,.344.344H14.781a.345.345,0,0,0,.344-.344v-.687A.345.345,0,0,0,14.781-4.812ZM17.965-19.25a1.28,1.28,0,0,0-.743.245L15.353-17.66l-1.659-1.195a2.075,2.075,0,0,0-1.207-.391,2.041,2.041,0,0,0-1.2.391L9.625-17.66,7.966-18.855a2.085,2.085,0,0,0-1.207-.391,2.041,2.041,0,0,0-1.2.391L3.9-17.66,2.028-19.005a1.261,1.261,0,0,0-.743-.245A1.285,1.285,0,0,0,0-17.965V1.47A1.276,1.276,0,0,0,2.028,2.505L3.9,1.16,5.556,2.355a2.075,2.075,0,0,0,1.207.391,2.041,2.041,0,0,0,1.2-.391L9.625,1.16l1.659,1.195a2.085,2.085,0,0,0,1.207.391,2.041,2.041,0,0,0,1.2-.391L15.353,1.16l1.869,1.345a1.261,1.261,0,0,0,.743.245,1.275,1.275,0,0,0,1.281-1.28V-17.965A1.279,1.279,0,0,0,17.965-19.25Zm-.09,20.53L16.156.043l-.8-.58-.8.58L12.891,1.237a.681.681,0,0,1-.4.129.689.689,0,0,1-.4-.133L10.428.043l-.8-.58-.8.58L7.163,1.237a.688.688,0,0,1-.808,0L4.7.043l-.8-.58-.8.58L1.375,1.306V-17.78l1.719,1.237.8.58.8-.58,1.659-1.195a.681.681,0,0,1,.4-.129.689.689,0,0,1,.4.133l1.659,1.19.8.58.8-.58,1.659-1.195a.685.685,0,0,1,.4-.129.689.689,0,0,1,.4.133l1.659,1.19.8.58.8-.58,1.719-1.237ZM14.781-13.062H4.469a.345.345,0,0,0-.344.344v.687a.345.345,0,0,0,.344.344H14.781a.345.345,0,0,0,.344-.344v-.687A.345.345,0,0,0,14.781-13.062Z" transform="translate(5 21)" fill="#fff"/>
  </g>
</svg>
