<svg xmlns="http://www.w3.org/2000/svg" width="30" height="30" viewBox="0 0 30 30">
  <g id="Info" transform="translate(1 2)">
    <g id="Rectangle_30" data-name="Rectangle 30" transform="translate(-1 -2)" fill="#fff" stroke="#707070" stroke-width="1" opacity="0">
      <rect width="30" height="30" stroke="none"/>
      <rect x="0.5" y="0.5" width="29" height="29" fill="none"/>
    </g>
    <path id="Path_9335" data-name="Path 9335" d="M12-20.625A11.627,11.627,0,0,0,.375-9,11.624,11.624,0,0,0,12,2.625,11.624,11.624,0,0,0,23.625-9,11.627,11.627,0,0,0,12-20.625Zm0,21A9.369,9.369,0,0,1,2.625-9,9.372,9.372,0,0,1,12-18.375,9.372,9.372,0,0,1,21.375-9,9.369,9.369,0,0,1,12,.375Zm0-15.844A1.969,1.969,0,0,0,10.031-13.5,1.969,1.969,0,0,0,12-11.531,1.969,1.969,0,0,0,13.969-13.5,1.969,1.969,0,0,0,12-15.469ZM14.625-3.562V-4.687a.563.563,0,0,0-.562-.562H13.5V-9.937a.563.563,0,0,0-.562-.562h-3a.563.563,0,0,0-.562.562v1.125a.563.563,0,0,0,.562.562H10.5v3H9.937a.563.563,0,0,0-.562.562v1.125A.563.563,0,0,0,9.937-3h4.125A.563.563,0,0,0,14.625-3.562Z" transform="translate(2 22)" fill="#fff"/>
  </g>
</svg>
