<svg xmlns="http://www.w3.org/2000/svg" width="30" height="30" viewBox="0 0 30 30">
  <g id="Receipt" transform="translate(1 2)">
    <g id="Rectangle_30" data-name="Rectangle 30" transform="translate(-1 -2)" fill="#fff" stroke="#707070" stroke-width="1" opacity="0">
      <rect width="30" height="30" stroke="none"/>
      <rect x="0.5" y="0.5" width="29" height="29" fill="none"/>
    </g>
    <path id="Path_9349" data-name="Path 9349" d="M7.312-13.5H-7.313A1.688,1.688,0,0,0-9-11.812V-1.687A1.688,1.688,0,0,0-7.313,0H7.312A1.688,1.688,0,0,0,9-1.687V-11.812A1.688,1.688,0,0,0,7.312-13.5ZM-7.313-12.375H7.312a.564.564,0,0,1,.562.562v1.455C7.105-9.707,6-8.81,2.58-6.093,1.986-5.621.816-4.486,0-4.5c-.816.014-1.99-1.121-2.58-1.593C-6-8.81-7.105-9.707-7.875-10.357v-1.455A.564.564,0,0,1-7.313-12.375ZM7.312-1.125H-7.313a.564.564,0,0,1-.562-.562V-8.895c.8.657,2.067,1.673,4.595,3.681.721.577,1.993,1.846,3.28,1.839,1.28.011,2.542-1.248,3.28-1.839C5.808-7.221,7.073-8.237,7.875-8.895v7.207A.564.564,0,0,1,7.312-1.125Z" transform="translate(14 18)" fill="#f8f8f8" stroke="rgba(0,0,0,0)" stroke-width="1"/>
  </g>
</svg>
