<svg xmlns="http://www.w3.org/2000/svg" width="26" height="26" viewBox="0 0 26 26">
  <g id="Layer_2" data-name="Layer 2" transform="translate(-3 -3)">
    <path id="Path_128" data-name="Path 128" d="M3,11.777A3.226,3.226,0,0,0,6.222,15h5.556A3.226,3.226,0,0,0,15,11.777V6.223A3.226,3.226,0,0,0,11.778,3H6.222A3.226,3.226,0,0,0,3,6.223ZM5,6.223A1.224,1.224,0,0,1,6.222,5h5.556A1.224,1.224,0,0,1,13,6.223v5.555A1.224,1.224,0,0,1,11.778,13H6.222A1.224,1.224,0,0,1,5,11.777Z" fill="#fff"/>
    <path id="Path_129" data-name="Path 129" d="M3,25.777A3.226,3.226,0,0,0,6.222,29h5.556A3.226,3.226,0,0,0,15,25.777V20.223A3.226,3.226,0,0,0,11.778,17H6.222A3.226,3.226,0,0,0,3,20.223Zm2-5.555A1.224,1.224,0,0,1,6.222,19h5.556A1.224,1.224,0,0,1,13,20.223v5.555A1.224,1.224,0,0,1,11.778,27H6.222A1.224,1.224,0,0,1,5,25.777Z" fill="#fff"/>
    <path id="Path_130" data-name="Path 130" d="M23,3a6,6,0,1,0,6,6,6,6,0,0,0-6-6Zm0,10a4,4,0,1,1,4-4,4,4,0,0,1-4,4Z" fill="#fff"/>
    <path id="Path_131" data-name="Path 131" d="M20.222,17A3.226,3.226,0,0,0,17,20.223v5.555A3.226,3.226,0,0,0,20.222,29h5.556A3.226,3.226,0,0,0,29,25.777V20.223A3.226,3.226,0,0,0,25.778,17ZM27,20.223v5.555A1.224,1.224,0,0,1,25.778,27H20.222A1.224,1.224,0,0,1,19,25.777V20.223A1.224,1.224,0,0,1,20.222,19h5.556A1.224,1.224,0,0,1,27,20.223Z" fill="#fff"/>
  </g>
</svg>
