<svg xmlns="http://www.w3.org/2000/svg" width="27.317" height="28" viewBox="0 0 27.317 28">
  <g id="Layer_2" data-name="Layer 2" transform="translate(-2 -2)">
    <path id="Path_16" data-name="Path 16" d="M13,17a4,4,0,1,0-4-4,4,4,0,0,0,4,4Zm0-6a2,2,0,1,1-2,2,2,2,0,0,1,2-2Z" fill="#fff"/>
    <path id="Path_17" data-name="Path 17" d="M28.624,19.57a3.489,3.489,0,0,0,.534-3.129l-.635-2.065A4.762,4.762,0,0,0,23.95,11H19.463a1,1,0,0,0,0,2H23.95a2.772,2.772,0,0,1,2.661,1.965l.635,2.065A1.523,1.523,0,0,1,25.791,19H16.622c-.028,0-.052.014-.08.016-.067,0-.132-.016-.2-.016h-6.27A5.166,5.166,0,0,0,5.11,22.665L4.363,25.09A3.8,3.8,0,0,0,7.99,30H18.423a3.8,3.8,0,0,0,3.627-4.91L21.3,22.665A5.2,5.2,0,0,0,20.426,21h5.365a3.489,3.489,0,0,0,2.833-1.43Zm-8.758,7.7A1.778,1.778,0,0,1,18.423,28H7.99a1.794,1.794,0,0,1-1.715-2.322l.746-2.425A3.174,3.174,0,0,1,10.071,21h6.27a3.174,3.174,0,0,1,3.05,2.253l.746,2.425a1.776,1.776,0,0,1-.271,1.594Z" fill="#fff"/>
    <path id="Path_18" data-name="Path 18" d="M21.5,9A3.5,3.5,0,1,0,18,5.5,3.5,3.5,0,0,0,21.5,9Zm0-5A1.5,1.5,0,1,1,20,5.5,1.5,1.5,0,0,1,21.5,4Z" fill="#fff"/>
    <path id="Path_19" data-name="Path 19" d="M2,6A1,1,0,0,0,3,7H5V9A1,1,0,0,0,7,9V7H9A1,1,0,0,0,9,5H7V3A1,1,0,0,0,5,3V5H3A1,1,0,0,0,2,6Z" fill="#fff"/>
  </g>
</svg>
