<svg xmlns="http://www.w3.org/2000/svg" width="22" height="22" viewBox="0 0 22 22">
  <g id="Group_3947" data-name="Group 3947" transform="translate(-1854 -164)">
    <rect id="Rectangle_2359" data-name="Rectangle 2359" width="22" height="22" transform="translate(1854 164)" fill="rgba(255,255,255,0)" opacity="0"/>
    <path id="Path_9298" data-name="Path 9298" d="M-1189.636-10779.986l-5.638-.02a.65.65,0,0,1-.651-.648v-.544a.651.651,0,0,1,.651-.65l3.141.021.038-.038-4.267-4.267,1.227-1.228,4.268,4.268.038-.037-.019-3.142a.651.651,0,0,1,.651-.651h.542a.652.652,0,0,1,.651.651l.019,5.635A.651.651,0,0,1-1189.636-10779.986Zm-18.7,0a.651.651,0,0,1-.651-.65l.019-5.635a.652.652,0,0,1,.651-.651h.542a.651.651,0,0,1,.651.651l-.019,3.142.038.037,4.456-4.456,1.226,1.226-4.457,4.457.038.038,3.141-.021a.651.651,0,0,1,.651.65v.544a.65.65,0,0,1-.651.648Zm5.938-12.183h0l-4.707-4.709-.038.038.019,3.139a.651.651,0,0,1-.651.65h-.542a.651.651,0,0,1-.651-.65l-.019-5.635a.651.651,0,0,1,.651-.65l5.635.02a.65.65,0,0,1,.651.648v.543a.652.652,0,0,1-.651.651l-3.141-.02-.038.037,4.71,4.71-1.226,1.228Zm7.011-.189h0l-1.228-1.229,4.52-4.52-.038-.037-3.141.02a.651.651,0,0,1-.651-.651v-.543a.65.65,0,0,1,.651-.648l5.638-.02a.655.655,0,0,1,.651.65l-.019,5.635a.651.651,0,0,1-.651.65h-.542a.651.651,0,0,1-.651-.65l.019-3.139-.038-.038-4.519,4.52Z" transform="translate(3063.986 10964.988)" fill="#2c3a57" stroke="#2c3a57" stroke-width="0.5"/>
  </g>
</svg>
