<svg xmlns="http://www.w3.org/2000/svg" width="12.5" height="12.5" viewBox="0 0 12.5 12.5">
  <path id="Path_3641" data-name="Path 3641" d="M1.326-7.5l4.006-4.006.826-.826a.313.313,0,0,0,0-.442l-.884-.884a.313.313,0,0,0-.442,0L0-8.826l-4.832-4.833a.313.313,0,0,0-.442,0l-.884.884a.313.313,0,0,0,0,.442L-1.326-7.5-6.159-2.668a.313.313,0,0,0,0,.442l.884.884a.313.313,0,0,0,.442,0L0-6.174,4.006-2.168l.826.826a.313.313,0,0,0,.442,0l.884-.884a.313.313,0,0,0,0-.442Z" transform="translate(6.25 13.75)" fill="#666666"/>
</svg>
