<svg xmlns="http://www.w3.org/2000/svg" width="20" height="20" viewBox="0 0 20 20">
  <g id="Group_3974" data-name="Group 3974" transform="translate(-1398 -246)">
    <rect id="Rectangle_2376" data-name="Rectangle 2376" width="20" height="20" transform="translate(1398 246)" fill="#fff" opacity="0"/>
    <path id="Path_9321" data-name="Path 9321" d="M-35737-23001.26a1,1,0,0,1-1-1V-23012a1,1,0,0,1,1-1h5.41v2.135h-4.27v7.471h11.738v-7.471h-3.738V-23013h4.867a1,1,0,0,1,1,1v9.732a1,1,0,0,1-1,1Zm3.508-7.865,1.281-1.283,1.418,1.418v-8.979h2.133v8.979l1.418-1.418,1.293,1.283-3.777,3.775Z" transform="translate(37138 23265.617)" fill="#2c3a57"/>
  </g>
</svg>
