<svg xmlns="http://www.w3.org/2000/svg" width="30" height="30" viewBox="0 0 30 30">
  <g id="order" transform="translate(1 2)">
    <g id="Rectangle_30" data-name="Rectangle 30" transform="translate(-1 -2)" fill="#fff" stroke="#707070" stroke-width="1" opacity="0">
      <rect width="30" height="30" stroke="none"/>
      <rect x="0.5" y="0.5" width="29" height="29" fill="none"/>
    </g>
    <g id="transaction" transform="translate(0 -1)">
      <rect id="Rectangle_546" data-name="Rectangle 546" width="28" height="28" fill="none"/>
      <path id="Subtraction_4" data-name="Subtraction 4" d="M-1231-8687h-14a3.006,3.006,0,0,1-3-3v-16a3.005,3.005,0,0,1,3-3h2.5v2h-2.5a1,1,0,0,0-1,1v16a1,1,0,0,0,1,1h14a1,1,0,0,0,1-1v-16a1,1,0,0,0-1-1h-2.5v-2h2.5a3,3,0,0,1,3,3v16A3.005,3.005,0,0,1-1231-8687Z" transform="translate(1251.999 8711)" fill="#fff"/>
      <path id="Subtraction_3" data-name="Subtraction 3" d="M-1240-8706h-7a1,1,0,0,1-1-1v-3a1,1,0,0,1,1-1h7a1,1,0,0,1,1,1v3A1,1,0,0,1-1240-8706Zm-6.5-3.5v2h6v-2Z" transform="translate(1257.501 8711.501)" fill="#fff"/>
      <rect id="Rectangle_1911" data-name="Rectangle 1911" width="10" height="2" rx="1" transform="translate(9 10)" fill="#fff"/>
      <rect id="Rectangle_1912" data-name="Rectangle 1912" width="7" height="2" rx="1" transform="translate(9 15)" fill="#fff"/>
    </g>
  </g>
</svg>
