<svg width="30" height="34" viewBox="0 0 30 34" fill="none" xmlns="http://www.w3.org/2000/svg">
    <path fill-rule="evenodd" clip-rule="evenodd" d="M8.01667 0.333496H21.985C27.1333 0.333496 30 3.30016 30 8.3835V25.6002C30 30.7668 27.1333 33.6668 21.985 33.6668H8.01667C2.95 33.6668 0 30.7668 0 25.6002V8.3835C0 3.30016 2.95 0.333496 8.01667 0.333496ZM8.46667 8.10016V8.0835H13.4483C14.1667 8.0835 14.75 8.66683 14.75 9.38183C14.75 10.1168 14.1667 10.7002 13.4483 10.7002H8.46667C7.74833 10.7002 7.16667 10.1168 7.16667 9.40016C7.16667 8.6835 7.74833 8.10016 8.46667 8.10016ZM8.46667 18.2335H21.5333C22.25 18.2335 22.8333 17.6502 22.8333 16.9335C22.8333 16.2168 22.25 15.6318 21.5333 15.6318H8.46667C7.74833 15.6318 7.16667 16.2168 7.16667 16.9335C7.16667 17.6502 7.74833 18.2335 8.46667 18.2335ZM8.46667 25.8502H21.5333C22.1983 25.7835 22.7 25.2152 22.7 24.5502C22.7 23.8668 22.1983 23.3002 21.5333 23.2335H8.46667C7.96667 23.1835 7.48333 23.4168 7.21667 23.8502C6.95 24.2668 6.95 24.8168 7.21667 25.2502C7.48333 25.6668 7.96667 25.9168 8.46667 25.8502Z" fill="#683C73"/>
</svg>
