<svg xmlns="http://www.w3.org/2000/svg" width="30" height="30" viewBox="0 0 30 30">
  <g id="Payment" transform="translate(1 2)">
    <g id="Rectangle_30" data-name="Rectangle 30" transform="translate(-1 -2)" fill="#fff" stroke="#707070" stroke-width="1" opacity="0">
      <rect width="30" height="30" stroke="none"/>
      <rect x="0.5" y="0.5" width="29" height="29" fill="none"/>
    </g>
    <path id="Union_4" data-name="Union 4" d="M-2310.8-8753.729q-2.532-2.55-5.062-5.1a.635.635,0,0,1,0-1q.749-.756,1.5-1.509l.6-.6a1.621,1.621,0,0,1,1.239-.491.172.172,0,0,0,.092-.051,5.908,5.908,0,0,1,5.389-2.878h0a5.98,5.98,0,0,1,2.128.412.921.921,0,0,0,.306.043l.964,0c1.183,0,2.406.009,3.609-.006a2.331,2.331,0,0,1,1.808.636.693.693,0,0,1,.067-.082c.89-.92,1.76-1.818,2.625-2.7a2.031,2.031,0,0,1,1.791-.58,1.874,1.874,0,0,1,1.407,1.06h0a2.007,2.007,0,0,1-.255,2.241l-2.235,2.674-.107.127q-.245.294-.493.587c-.345.41-.7.834-1.046,1.256a4.176,4.176,0,0,1-3.367,1.583h-.1c-1.906.011-3.877.022-5.816-.009a1.858,1.858,0,0,0-1.448.748.28.28,0,0,0,0,.07,1.574,1.574,0,0,1-.448,1.47l-.684.676q-.727.718-1.455,1.434a.733.733,0,0,1-.505.251A.735.735,0,0,1-2310.8-8753.729Zm-2.113-7.31q-.346.344-.689.69-.3.3-.6.6c-.118.117-.237.232-.363.354l-.072.069,4.45,4.359.386-.4c.435-.452.884-.92,1.326-1.39.164-.174.052-.357-.071-.48-1.3-1.3-2.581-2.582-3.808-3.808a.415.415,0,0,0-.276-.155A.431.431,0,0,0-2312.917-8761.039Zm4.854-3.021a4.484,4.484,0,0,0-3.291,2.186.2.2,0,0,0-.029.063.223.223,0,0,0,.034.036c.13.116.251.241.369.362.048.05.1.1.146.148l2.88,2.889c.021-.019.038-.035.054-.052a2.845,2.845,0,0,1,2.286-.924c1.535.024,3.1.018,4.608.012l1.119,0a2.988,2.988,0,0,0,2.479-1.157c.279-.351.572-.7.856-1.032q.2-.23.389-.461l.744-.889c.617-.736,1.254-1.5,1.879-2.249a.776.776,0,0,0-.045-1.1.761.761,0,0,0-1.076.039c-.89.91-1.858,1.907-2.961,3.05a.2.2,0,0,0-.048.109,2.015,2.015,0,0,1-2.107,2.142c-.943.006-1.9,0-2.83,0l-.729,0a1.131,1.131,0,0,1-.291-.033.6.6,0,0,1-.443-.6.6.6,0,0,1,.5-.583,1.857,1.857,0,0,1,.309-.018h.014q1.7,0,3.4,0a1.987,1.987,0,0,0,.319-.02.74.74,0,0,0,.481-.312.746.746,0,0,0,.125-.567.788.788,0,0,0-.871-.645c-1.656,0-3.312,0-4.968,0a1.2,1.2,0,0,1-.465-.07,5.045,5.045,0,0,0-1.952-.388A5.728,5.728,0,0,0-2308.062-8764.061Zm2.675,3.091a.621.621,0,0,1-.44-.191.617.617,0,0,1-.177-.443.608.608,0,0,1,.2-.43.62.62,0,0,1,.452-.166.608.608,0,0,1,.582.628.618.618,0,0,1-.612.6Zm.126-7.054a5.193,5.193,0,0,1-2.1-3.556,5.225,5.225,0,0,1,1.056-3.89,5.229,5.229,0,0,1,3.507-1.99.457.457,0,0,0,.08-.021l.055-.016.02,0h.96l.016,0c.089.019.179.035.269.053.2.036.4.074.6.128a5.175,5.175,0,0,1,2.894,1.991,5.366,5.366,0,0,1,.985,3.413,5.088,5.088,0,0,1-1.316,3.143,5.337,5.337,0,0,1-3.02,1.69,5.3,5.3,0,0,1-.916.081A5.187,5.187,0,0,1-2305.26-8768.023Zm.276-7.073a3.968,3.968,0,0,0-1.182,2.82,4.019,4.019,0,0,0,4,4.033h.015a4.009,4.009,0,0,0,4.007-3.985,4.011,4.011,0,0,0-3.973-4.036h-.019A4.013,4.013,0,0,0-2304.985-8775.1Zm2.72,6.234a.634.634,0,0,1-.461-.206.522.522,0,0,1-.13-.4.521.521,0,0,0-.352-.637,1.226,1.226,0,0,1-.434-.378l-.031-.036a.6.6,0,0,1,.063-.856.606.606,0,0,1,.833.021c.034.03.067.063.1.095a1.5,1.5,0,0,0,.176.154.348.348,0,0,0,.435.021.276.276,0,0,0,.106-.327c-.05-.15-.154-.217-.362-.229a1.479,1.479,0,0,1-1.34-.921,1.448,1.448,0,0,1,.222-1.59,1.672,1.672,0,0,1,.492-.394c.086-.047.088-.066.082-.135a2.409,2.409,0,0,1,0-.4.614.614,0,0,1,.612-.572h0a.655.655,0,0,1,.48.219.487.487,0,0,1,.12.39.534.534,0,0,0,.385.657.772.772,0,0,1,.263.211l.019.021a.6.6,0,0,1,.023.814.613.613,0,0,1-.83.1c-.04-.027-.078-.057-.116-.086a1.5,1.5,0,0,0-.154-.109.3.3,0,0,0-.383.017.271.271,0,0,0-.1.327.314.314,0,0,0,.323.217,1.518,1.518,0,0,1,1.425,1.053,1.512,1.512,0,0,1-.452,1.657l-.021.02a.353.353,0,0,1-.146.1c-.214.063-.246.184-.229.488a.67.67,0,0,1-.169.518.6.6,0,0,1-.442.176Z" transform="translate(2318.109 8778.486)" fill="#fff" stroke="#fff" stroke-width="0.2"/>
  </g>
</svg>
