<svg xmlns="http://www.w3.org/2000/svg" width="30" height="30" viewBox="0 0 30 30">
  <g id="product" transform="translate(1 2)">
    <g id="Rectangle_30" data-name="Rectangle 30" transform="translate(-1 -2)" fill="#fff" stroke="#707070" stroke-width="1" opacity="0">
      <rect width="30" height="30" stroke="none"/>
      <rect x="0.5" y="0.5" width="29" height="29" fill="none"/>
    </g>
    <g id="product-2" data-name="product" transform="translate(-18.439 -49.326)">
      <path id="Union_1" data-name="Union 1" d="M-2029.714-682.675h-23.914a1.426,1.426,0,0,1-1.4-1.4v-.028c-.009-.7,0-1.4,0-2.1v-15.22a1.372,1.372,0,0,1,.195-.7,1.516,1.516,0,0,1,.213-.288l.121-.13,2.26-2.4q1.329-1.412,2.653-2.819a2.6,2.6,0,0,1,1.079-.85,2.737,2.737,0,0,1,.8-.05h13.52a1.52,1.52,0,0,1,1.1.526c.284.3.571.6.855.908q1.43,1.513,2.856,3.033l1.674,1.778a1.243,1.243,0,0,1,.33.541,1.42,1.42,0,0,1,.076.38c0,.025,0,.05,0,.075a1.094,1.094,0,0,1,0,.127c.006.667,0,1.335,0,2v15.221a1.426,1.426,0,0,1-1.4,1.4h-1.012Zm-20.85-2.811h20.455q0-.363,0-.725v-13.811h-6.549v6.3a1.418,1.418,0,0,1-.7,1.215,1.438,1.438,0,0,1-1.419,0c-.132-.068-.262-.138-.394-.205l-2.043-1.071-2.435,1.276a1.438,1.438,0,0,1-1.419,0,1.42,1.42,0,0,1-.7-1.215v-6.3h-6.46q0,.361,0,.722v13.815Zm10.066-11.1c.121.062.238.127.357.188l.671.352v-3.977h-3.479v3.975l.806-.423.188-.1a.225.225,0,0,1,.034-.02,1.659,1.659,0,0,1,.711-.191h.042A1.519,1.519,0,0,1-2040.5-696.586Zm3.356-6.25h5.188l-1.374-1.459-1.465-1.559c-.369,0-.738,0-1.107,0h-11.629l-.291.31q-1.274,1.358-2.552,2.713h5.92q.049,0,.1,0h6.294a1.011,1.011,0,0,1,.14,0Zm2.954-3.022Z" transform="translate(2073.604 758)" fill="#f8f8f8" stroke="#2c3a57" stroke-width="1"/>
    </g>
  </g>
</svg>
