<svg xmlns="http://www.w3.org/2000/svg" width="30" height="30" viewBox="0 0 30 30">
  <g id="Layer_2" data-name="Layer 2" transform="translate(1 2)">
    <g id="Rectangle_30" data-name="Rectangle 30" transform="translate(-1 -2)" fill="#fff" stroke="#707070" stroke-width="1" opacity="0">
      <rect width="30" height="30" stroke="none"/>
      <rect x="0.5" y="0.5" width="29" height="29" fill="none"/>
    </g>
    <g id="transaction" transform="translate(0 -1)">
      <rect id="Rectangle_546" data-name="Rectangle 546" width="28" height="28" fill="none"/>
      <path id="Path_5326" data-name="Path 5326" d="M23.306,28.072h0c-5.095,0-10.19.016-15.286,0a4.894,4.894,0,0,1-4.738-4.767V8.048A1,1,0,0,1,4.86,7.327a.967.967,0,0,1,.312.541.946.946,0,0,1,.017.18c0,5.1-.048,10.2,0,15.292a2.935,2.935,0,0,0,2.842,2.825c3.821.012,7.64,0,11.461,0-.018-.023-.035-.047-.052-.072a4.826,4.826,0,0,1-.9-2.788V5.187H4.235s-.919-.21-.953-.908a1,1,0,0,1,.953-1H19.491a1,1,0,0,1,.954.953c0,6.369-.059,12.739,0,19.106a2.942,2.942,0,0,0,2.8,2.825c.075-.009.052,0,.224,0A2.939,2.939,0,0,0,26.166,23.3V14.723H23.305a1.3,1.3,0,0,1-.7-.305.989.989,0,0,1,.557-1.592.891.891,0,0,1,.142-.01H27.12l.071,0a.756.756,0,0,1,.342.092,1,1,0,0,1,.54.859c0,3.188.01,6.377,0,9.566a4.906,4.906,0,0,1-4.766,4.737h0ZM13.77,22.35H9.956a.954.954,0,0,1,0-1.907h3.852a.954.954,0,0,1-.038,1.906Zm1.907-3.814H8.049a.827.827,0,0,1-.414-.094A.992.992,0,0,1,7.5,16.806a.949.949,0,0,1,.392-.163,1.266,1.266,0,0,1,.159-.013h7.629l.053,0a.985.985,0,0,1,.657,1.587.872.872,0,0,1-.711.319Zm0-3.814H8.049a.985.985,0,0,1-.711-1.59.87.87,0,0,1,.711-.318h7.682a.993.993,0,0,1,.657,1.588A.874.874,0,0,1,15.677,14.723Zm0-3.815H8.049a.987.987,0,0,1-.711-1.589A.87.87,0,0,1,8.049,9h7.682a.814.814,0,0,1,.407.117.99.99,0,0,1,.091,1.613.96.96,0,0,1-.392.162,1.11,1.11,0,0,1-.159.013Z" transform="translate(-1.679 -1.679)" fill="#fff"/>
    </g>
  </g>
</svg>
