<svg xmlns="http://www.w3.org/2000/svg" xmlns:xlink="http://www.w3.org/1999/xlink" width="25" height="21" viewBox="0 0 25 21">
  <defs>
    <clipPath id="clip-path">
      <rect id="Rectangle_2317" data-name="Rectangle 2317" width="25" height="21" transform="translate(728 551)" fill="#09b530" stroke="#f80000" stroke-width="1"/>
    </clipPath>
  </defs>
  <g id="Mask_Group_83" data-name="Mask Group 83" transform="translate(-728 -551)" clip-path="url(#clip-path)">
    <path id="save" d="M20.71,9.29l-6-6a1,1,0,0,0-.32-.21A1.09,1.09,0,0,0,14,3H6A3,3,0,0,0,3,6V18a3,3,0,0,0,3,3H18a3,3,0,0,0,3-3V10A1,1,0,0,0,20.71,9.29ZM9,5h4V7H9Zm6,14H9V16a1,1,0,0,1,1-1h4a1,1,0,0,1,1,1Zm4-1a1,1,0,0,1-1,1H17V16a3,3,0,0,0-3-3H10a3,3,0,0,0-3,3v3H6a1,1,0,0,1-1-1V6A1,1,0,0,1,6,5H7V8A1,1,0,0,0,8,9h6a1,1,0,0,0,1-1V6.41l4,4Z" transform="translate(729 550)" fill="#09b530"/>
  </g>
</svg>
