<svg xmlns="http://www.w3.org/2000/svg" width="30" height="30" viewBox="0 0 30 30">
  <g id="Setting_kitchent" data-name="Setting kitchent" transform="translate(1 2)">
    <g id="Rectangle_30" data-name="Rectangle 30" transform="translate(-1 -2)" fill="#fff" stroke="#707070" stroke-width="1" opacity="0">
      <rect width="30" height="30" stroke="none"/>
      <rect x="0.5" y="0.5" width="29" height="29" fill="none"/>
    </g>
    <path id="Path_21" data-name="Path 21" d="M26.945,3H5.055A3.058,3.058,0,0,0,2,6.055V20.945A3.058,3.058,0,0,0,5.055,24H13v3H11a1,1,0,0,0,0,2H21a1,1,0,0,0,0-2H19V24h7.945A3.058,3.058,0,0,0,30,20.945V6.055A3.058,3.058,0,0,0,26.945,3ZM17,27H15V24h2Zm11-6.055A1.056,1.056,0,0,1,26.945,22H5.055A1.056,1.056,0,0,1,4,20.945V6.055A1.056,1.056,0,0,1,5.055,5H26.945A1.056,1.056,0,0,1,28,6.055Z" transform="translate(-2 -3)" fill="#f8f8f8"/>
    <path id="Path_22" data-name="Path 22" d="M7,16h4a1,1,0,0,0,0-2H7a1,1,0,0,0,0,2Z" transform="translate(-2 -3)" fill="#f8f8f8"/>
    <path id="Path_23" data-name="Path 23" d="M16,18H7a1,1,0,0,0,0,2h9a1,1,0,0,0,0-2Z" transform="translate(-2 -3)" fill="#f8f8f8"/>
    <path id="Path_24" data-name="Path 24" d="M21.5,7V9A2.5,2.5,0,1,1,19,11.5H17A4.5,4.5,0,1,0,21.5,7Z" transform="translate(-2 -3)" fill="#f8f8f8"/>
  </g>
</svg>
