<svg xmlns="http://www.w3.org/2000/svg" width="30" height="30" viewBox="0 0 30 30">
  <g id="Tax" transform="translate(1 2)">
    <g id="Rectangle_30" data-name="Rectangle 30" transform="translate(-1 -2)" fill="#fff" stroke="#707070" stroke-width="1" opacity="0">
      <rect width="30" height="30" stroke="none"/>
      <rect x="0.5" y="0.5" width="29" height="29" fill="none"/>
    </g>
    <g id="Group_1181" data-name="Group 1181">
      <g id="Subtraction_5" data-name="Subtraction 5" transform="translate(3268 9160)" fill="none">
        <path d="M-3242-9139h-23a3,3,0,0,1-3-3v-10a3,3,0,0,1,3-3h23a3,3,0,0,1,3,3v10A3,3,0,0,1-3242-9139Zm-23-14a1,1,0,0,0-1,1v10a1,1,0,0,0,1,1h23a1,1,0,0,0,1-1v-10a1,1,0,0,0-1-1Z" stroke="none"/>
        <path d="M -3241.999267578125 -9139 L -3265.000732421875 -9139 C -3266.654052734375 -9139 -3267.9990234375 -9140.345703125 -3267.9990234375 -9142 L -3267.9990234375 -9152 C -3267.9990234375 -9153.654296875 -3266.654052734375 -9155 -3265.000732421875 -9155 L -3241.999267578125 -9155 C -3240.345947265625 -9155 -3239.0009765625 -9153.654296875 -3239.0009765625 -9152 L -3239.0009765625 -9142 C -3239.0009765625 -9140.345703125 -3240.345947265625 -9139 -3241.999267578125 -9139 Z M -3265.000732421875 -9152.9990234375 C -3265.5517578125 -9152.9990234375 -3266 -9152.55078125 -3266 -9152 L -3266 -9142 C -3266 -9141.44921875 -3265.5517578125 -9141.0009765625 -3265.000732421875 -9141.0009765625 L -3241.999267578125 -9141.0009765625 C -3241.4482421875 -9141.0009765625 -3241 -9141.44921875 -3241 -9142 L -3241 -9152 C -3241 -9152.55078125 -3241.4482421875 -9152.9990234375 -3241.999267578125 -9152.9990234375 L -3265.000732421875 -9152.9990234375 Z" stroke="none" fill="#fff"/>
      </g>
      <path id="Path_5356" data-name="Path 5356" d="M3.34-.834a.832.832,0,0,1-.607-.226.8.8,0,0,1-.231-.6V-7.1H.76q-.8,0-.8-.688t.8-.677H5.92q.8,0,.8.677t-.8.688H4.179v5.44a.814.814,0,0,1-.226.6A.828.828,0,0,1,3.34-.834ZM13.533-1.909a.864.864,0,0,1,.086.344.652.652,0,0,1-.242.511.821.821,0,0,1-.554.21.725.725,0,0,1-.387-.113.714.714,0,0,1-.28-.339l-.57-1.269H7.942L7.372-1.3A.726.726,0,0,1,7.1-.957a.716.716,0,0,1-.392.113.841.841,0,0,1-.559-.21A.646.646,0,0,1,5.9-1.565a.864.864,0,0,1,.086-.344l2.9-6.1A.841.841,0,0,1,9.243-8.4a1.007,1.007,0,0,1,.505-.134,1,1,0,0,1,.516.14.951.951,0,0,1,.366.387ZM11.017-3.833,9.77-6.629l-1.258,2.8Zm9.408,1.742a.749.749,0,0,1,.2.495.728.728,0,0,1-.242.543.779.779,0,0,1-.554.231.692.692,0,0,1-.548-.269L17.264-3.565,15.221-1.092a.713.713,0,0,1-.548.269.767.767,0,0,1-.543-.231.728.728,0,0,1-.242-.543.744.744,0,0,1,.194-.495l2.2-2.623L14.156-7.263a.749.749,0,0,1-.2-.495.728.728,0,0,1,.242-.543.767.767,0,0,1,.543-.231.712.712,0,0,1,.559.28l1.968,2.376L19.21-8.252a.712.712,0,0,1,.559-.28.767.767,0,0,1,.543.231.728.728,0,0,1,.242.543.744.744,0,0,1-.194.495L18.231-4.715Z" transform="translate(4.204 17.678)" fill="#fff"/>
    </g>
  </g>
</svg>
