<svg xmlns="http://www.w3.org/2000/svg" width="17.659" height="19.196" viewBox="0 0 17.659 19.196">
  <g id="noun_add_profile_204868" data-name="noun_add profile_204868" transform="translate(-0.212 2.5)">
    <path id="Path_367" data-name="Path 367" d="M12.878,7.8A3.9,3.9,0,1,0,9,3.878,3.89,3.89,0,0,0,12.878,7.8Zm0-7.019a3.1,3.1,0,1,1-3.1,3.1A3.112,3.112,0,0,1,12.878.776Z" transform="translate(-5.064 -2)" fill="#fff" stroke="#fff" stroke-width="1"/>
    <path id="Path_368" data-name="Path 368" d="M11.848,20.161a.38.38,0,0,0,.271-.659l-.078-.078a1.518,1.518,0,0,0-1.784-.116,4.468,4.468,0,0,1-4.886,0,1.463,1.463,0,0,0-1.823.155A8.667,8.667,0,0,0,.8,24.233,2.521,2.521,0,0,0,1.8,26.87a1.729,1.729,0,0,0,1.008.31H9.288a.366.366,0,0,0,.388-.388h0a.366.366,0,0,0-.388-.388H2.812a1.262,1.262,0,0,1-.543-.155,1.764,1.764,0,0,1-.7-1.823,7.806,7.806,0,0,1,2.56-4.382.716.716,0,0,1,.465-.194,1.132,1.132,0,0,1,.349.078c.31.155.582.388.892.5a5.22,5.22,0,0,0,4.848-.5.838.838,0,0,1,.853.039.773.773,0,0,0,.155.155A.259.259,0,0,0,11.848,20.161Z" transform="translate(0 -11.668)" fill="#fff" stroke="#fff" stroke-width="1"/>
    <g id="Group_218" data-name="Group 218" transform="translate(11.521 10.346)">
      <path id="Path_369" data-name="Path 369" d="M28.949,30.576h-5.1a.392.392,0,1,1,0-.776h5.1a.392.392,0,1,1,0,.776Z" transform="translate(-23.4 -27.188)" fill="#fff" stroke="#fff" stroke-width="0.7"/>
      <path id="Path_370" data-name="Path 370" d="M29.488,30.1a.4.4,0,0,1-.388-.448v-5.1a.392.392,0,1,1,.776,0v5.06A.467.467,0,0,1,29.488,30.1Z" transform="translate(-26.465 -24.1)" fill="#fff" stroke="#fff" stroke-width="0.7"/>
    </g>
  </g>
</svg>
