<svg width="30" height="30" viewBox="0 0 30 30" fill="none" xmlns="http://www.w3.org/2000/svg">
<path d="M2.5 5H27.5V21.25H2.5V5Z" stroke="#F4F5F6" stroke-width="2" stroke-linecap="round" stroke-linejoin="round" />
<path
    d="M20.25 11.25L22.5 13.125L20.25 15V11.25ZM9.75 15L7.5 13.125L9.75 11.25V15Z"
    fill="#F4F5F6"
    stroke="#F4F5F6"
    stroke-width="2"
    stroke-linecap="round"
    stroke-linejoin="round"
  />
<path
    d="M12.5 25.625C12.5 25.9702 12.7798 26.25 13.125 26.25C13.4702 26.25 13.75 25.9702 13.75 25.625C13.75 25.2798 13.4702 25 13.125 25C12.7798 25 12.5 25.2798 12.5 25.625Z"
    stroke="#F4F5F6"
  />
<path
    d="M8.75 25.625C8.75 25.9702 9.02982 26.25 9.375 26.25C9.72018 26.25 10 25.9702 10 25.625C10 25.2798 9.72018 25 9.375 25C9.02982 25 8.75 25.2798 8.75 25.625Z"
    stroke="#F4F5F6"
  />
<path
    d="M16.25 25.625C16.25 25.9702 16.5298 26.25 16.875 26.25C17.2202 26.25 17.5 25.9702 17.5 25.625C17.5 25.2798 17.2202 25 16.875 25C16.5298 25 16.25 25.2798 16.25 25.625Z"
    stroke="#F4F5F6"
  />
<path
    d="M20 25.625C20 25.9702 20.2798 26.25 20.625 26.25C20.9702 26.25 21.25 25.9702 21.25 25.625C21.25 25.2798 20.9702 25 20.625 25C20.2798 25 20 25.2798 20 25.625Z"
    stroke="#F4F5F6"
  />
</svg>
