<svg width="30" height="30" viewBox="0 0 30 30" fill="none" xmlns="http://www.w3.org/2000/svg">
<path d="M24 18H18C16.8954 18 16 18.8954 16 20V26C16 27.1046 16.8954 28 18 28H24C25.1046 28 26 27.1046 26 26V20C26 18.8954 25.1046 18 24 18Z" stroke="#F4F5F6" stroke-width="2"/>
<path d="M10 18H4C2.89543 18 2 18.8954 2 20V26C2 27.1046 2.89543 28 4 28H10C11.1046 28 12 27.1046 12 26V20C12 18.8954 11.1046 18 10 18Z" stroke="#F4F5F6" stroke-width="2"/>
<path d="M10 3H4C2.89543 3 2 3.89543 2 5V11C2 12.1046 2.89543 13 4 13H10C11.1046 13 12 12.1046 12 11V5C12 3.89543 11.1046 3 10 3Z" stroke="#F4F5F6" stroke-width="2"/>
<path d="M24 3H18C16.8954 3 16 3.89543 16 5V11C16 12.1046 16.8954 13 18 13H24C25.1046 13 26 12.1046 26 11V5C26 3.89543 25.1046 3 24 3Z" stroke="#F4F5F6" stroke-width="2"/>
</svg>
