<svg width="30" height="30" viewBox="0 0 30 30" fill="none" xmlns="http://www.w3.org/2000/svg">
<path d="M24.388 13.38C25.3001 13.38 26.1748 13.0177 26.8197 12.3727C27.4647 11.7278 27.827 10.8531 27.827 9.94098C27.8273 9.48919 27.7385 9.04179 27.5658 8.62432C27.3931 8.20685 27.1398 7.8275 26.8204 7.50794C26.5011 7.18839 26.1219 6.9349 25.7045 6.76195C25.2871 6.589 24.8398 6.49998 24.388 6.49998C23.4759 6.49998 22.6012 6.8623 21.9563 7.50724C21.3113 8.15217 20.949 9.0269 20.949 9.93898C20.9487 10.3908 21.0375 10.8382 21.2102 11.2556C21.3829 11.6731 21.6362 12.0525 21.9556 12.372C22.2749 12.6916 22.6541 12.9451 23.0715 13.118C23.4889 13.291 23.9362 13.38 24.388 13.38ZM24.388 8.56498C24.7526 8.56603 25.102 8.71134 25.3598 8.96916C25.6176 9.22699 25.7629 9.57636 25.764 9.94098C25.7629 10.3056 25.6176 10.655 25.3598 10.9128C25.102 11.1706 24.7526 11.3159 24.388 11.317C24.0234 11.3159 23.674 11.1706 23.4162 10.9128C23.1584 10.655 23.0131 10.3056 23.012 9.94098C23.0131 9.57636 23.1584 9.22699 23.4162 8.96916C23.674 8.71134 24.0234 8.56603 24.388 8.56498ZM5.127 13.38C5.57878 13.3801 6.02617 13.2912 6.44359 13.1184C6.86101 12.9456 7.24028 12.6922 7.55974 12.3727C7.8792 12.0533 8.13258 11.674 8.30541 11.2566C8.47824 10.8391 8.56713 10.3918 8.567 9.93998C8.56713 9.48819 8.47824 9.04081 8.30541 8.62339C8.13258 8.20597 7.8792 7.8267 7.55974 7.50724C7.24028 7.18778 6.86101 6.93439 6.44359 6.76156C6.02617 6.58873 5.57878 6.49985 5.127 6.49998C4.6753 6.49998 4.22802 6.58896 3.81072 6.76185C3.39342 6.93474 3.01426 7.18815 2.69491 7.50759C2.37555 7.82704 2.12226 8.20627 1.94949 8.62362C1.77672 9.04098 1.68787 9.48828 1.688 9.93998C1.68787 10.3917 1.77672 10.839 1.94949 11.2563C2.12226 11.6737 2.37555 12.0529 2.69491 12.3724C3.01426 12.6918 3.39342 12.9452 3.81072 13.1181C4.22802 13.291 4.6753 13.38 5.127 13.38ZM5.127 8.56498C5.49092 8.56682 5.83938 8.71234 6.09653 8.96986C6.35367 9.22738 6.49869 9.57606 6.5 9.93998C6.49894 10.3046 6.35363 10.654 6.09581 10.9118C5.83799 11.1696 5.48861 11.3149 5.124 11.316C4.76008 11.3139 4.41173 11.1681 4.15477 10.9104C3.89781 10.6527 3.75305 10.3039 3.752 9.93998C3.75332 9.57571 3.89861 9.22674 4.15618 8.96916C4.41376 8.71158 4.76273 8.5663 5.127 8.56498ZM22.17 17.632C21.5625 16.7891 20.7028 16.1612 19.715 15.839C18.7273 15.5167 17.6627 15.5167 16.675 15.839C16.0521 16.0293 15.4044 16.1263 14.753 16.127C14.1016 16.1263 13.4539 16.0293 12.831 15.839C11.8433 15.5159 10.7785 15.5155 9.7906 15.8378C8.8027 16.1602 7.94302 16.7885 7.336 17.632C6.78677 18.4503 6.49556 19.4145 6.5 20.4V22.326C6.50106 22.8725 6.71885 23.3963 7.10559 23.7825C7.49233 24.1687 8.01646 24.3857 8.563 24.386H20.94C21.4867 24.3849 22.0107 24.167 22.3969 23.78C22.7831 23.3931 23 22.8687 23 22.322V20.4C23.0108 19.4144 22.7213 18.449 22.17 17.632ZM20.949 22.322H8.567V20.4C8.56951 19.6478 8.8642 18.9259 9.38887 18.3869C9.91354 17.8479 10.6271 17.5338 11.379 17.511C12.4486 17.9619 13.5972 18.1957 14.758 18.199C15.9188 18.1957 17.0674 17.9619 18.137 17.511C18.8894 17.5323 19.6038 17.8459 20.1288 18.3853C20.6538 18.9246 20.948 19.6473 20.949 20.4V22.322ZM24.9 14.756H23.873C23.1561 14.7561 22.4555 14.9702 21.861 15.371C22.4396 15.8009 22.9399 16.3273 23.34 16.927C23.5088 16.861 23.6878 16.8248 23.869 16.82H24.9C25.3102 16.821 25.7034 16.9845 25.9934 17.2745C26.2835 17.5646 26.4469 17.9577 26.448 18.368C26.4488 18.6414 26.5578 18.9035 26.7511 19.0968C26.9445 19.2902 27.2065 19.3992 27.48 19.4C27.7535 19.3992 28.0155 19.2902 28.2089 19.0968C28.4022 18.9035 28.5112 18.6414 28.512 18.368C28.5124 17.8935 28.4192 17.4237 28.2378 16.9853C28.0564 16.5469 27.7904 16.1485 27.455 15.813C27.1195 15.4775 26.7211 15.2115 26.2827 15.0302C25.8443 14.8488 25.3744 14.7556 24.9 14.756ZM14.754 14.756C15.3864 14.7562 16.0126 14.6319 16.5969 14.39C17.1812 14.1481 17.7121 13.7934 18.1593 13.3463C18.6065 12.8991 18.9611 12.3682 19.203 11.7839C19.4449 11.1996 19.5693 10.5734 19.569 9.94098C19.5693 9.30859 19.4449 8.68235 19.203 8.09805C18.9611 7.51374 18.6065 6.98284 18.1593 6.53567C17.7121 6.08851 17.1812 5.73385 16.5969 5.49196C16.0126 5.25008 15.3864 5.12571 14.754 5.12598C13.4777 5.12651 12.2538 5.63396 11.3516 6.53673C10.4494 7.43951 9.94273 8.66366 9.943 9.93998C9.94255 10.5724 10.0668 11.1988 10.3085 11.7832C10.5503 12.3676 10.9049 12.8987 11.352 13.346C11.7992 13.7933 12.3302 14.148 12.9147 14.39C13.4991 14.6319 14.1255 14.7563 14.758 14.756H14.754ZM14.754 7.18898C15.4842 7.18845 16.1848 7.47795 16.7016 7.99384C17.2184 8.50972 17.5092 9.20975 17.51 9.93998C17.5095 10.6697 17.2194 11.3694 16.7034 11.8853C16.1874 12.4013 15.4877 12.6914 14.758 12.692C14.0283 12.6914 13.3286 12.4013 12.8126 11.8853C12.2966 11.3694 12.0065 10.6697 12.006 9.93998C12.0068 9.21044 12.297 8.51102 12.813 7.99525C13.3289 7.47948 14.0285 7.18951 14.758 7.18898H14.754ZM7.654 15.371C7.05953 14.9702 6.35894 14.7561 5.642 14.756H4.611C3.65379 14.7576 2.73624 15.1385 2.05939 15.8154C1.38254 16.4922 1.00159 17.4098 1 18.367C1.00053 18.6406 1.10939 18.9029 1.30279 19.0965C1.49618 19.2901 1.75837 19.3992 2.032 19.4C2.30546 19.3992 2.56749 19.2902 2.76086 19.0968C2.95423 18.9035 3.06321 18.6414 3.064 18.368C3.06506 17.9577 3.22849 17.5646 3.51857 17.2745C3.80864 16.9845 4.20177 16.821 4.612 16.82H5.643C5.82429 16.8239 6.00343 16.8601 6.172 16.927C6.57468 16.3278 7.07614 15.8013 7.655 15.37L7.654 15.371Z" fill="#F4F5F6"/>
</svg>
