<svg width="30" height="30" viewBox="0 0 30 30" fill="none" xmlns="http://www.w3.org/2000/svg">
<path d="M24 29H6C4.67432 28.9987 3.40334 28.4716 2.46594 27.5342C1.52855 26.5968 1.00132 25.3257 1 24V6C1.00159 4.67441 1.52885 3.40316 2.46619 2.46582C3.40352 1.52848 4.67441 1.00159 6 1H24C25.3256 1.00159 26.5965 1.52848 27.5338 2.46582C28.4712 3.40316 28.9984 4.67441 29 6V24C28.9987 25.3257 28.4715 26.5968 27.5341 27.5342C26.5967 28.4716 25.3257 28.9987 24 29ZM6 3C5.20435 3 4.44127 3.3163 3.87866 3.87891C3.31605 4.44152 3 5.20435 3 6V24C3 24.7956 3.31605 25.5585 3.87866 26.1211C4.44127 26.6837 5.20435 27 6 27H24C24.7956 27 25.5587 26.6837 26.1213 26.1211C26.6839 25.5585 27 24.7956 27 24V6C27 5.20435 26.6839 4.44152 26.1213 3.87891C25.5587 3.3163 24.7956 3 24 3H6Z" fill="#F4F5F6"/>
<path d="M10 15C10 14.4477 9.55228 14 9 14C8.44772 14 8 14.4477 8 15V24C8 24.5523 8.44772 25 9 25C9.55228 25 10 24.5523 10 24V15Z" fill="#F4F5F6"/>
<path d="M16 8C16 7.44772 15.5523 7 15 7C14.4477 7 14 7.44772 14 8V24C14 24.5523 14.4477 25 15 25C15.5523 25 16 24.5523 16 24V8Z" fill="#F4F5F6"/>
<path d="M22 12C22 11.4477 21.5523 11 21 11C20.4477 11 20 11.4477 20 12V24C20 24.5523 20.4477 25 21 25C21.5523 25 22 24.5523 22 24V12Z" fill="#F4F5F6"/>
</svg>
