<svg width="30" height="30" viewBox="0 0 30 30" fill="none" xmlns="http://www.w3.org/2000/svg">
<path d="M19.8214 17.5717C19.5656 17.5717 19.3204 17.6733 19.1395 17.8541C18.9587 18.035 18.8571 18.2802 18.8571 18.536C18.8571 18.7917 18.9587 19.037 19.1395 19.2178C19.3204 19.3987 19.5656 19.5003 19.8214 19.5003H23.0357C23.2914 19.5003 23.5367 19.3987 23.7175 19.2178C23.8984 19.037 24 18.7917 24 18.536C24 18.2802 23.8984 18.035 23.7175 17.8541C23.5367 17.6733 23.2914 17.5717 23.0357 17.5717H19.8214ZM5.08925 5.35742C4.30781 5.35742 3.55837 5.66785 3.00581 6.22041C2.45325 6.77297 2.14282 7.52241 2.14282 8.30385V20.6253C2.14282 21.4067 2.45325 22.1562 3.00581 22.7087C3.55837 23.2613 4.30781 23.5717 5.08925 23.5717H24.9107C25.6921 23.5717 26.4416 23.2613 26.9941 22.7087C27.5467 22.1562 27.8571 21.4067 27.8571 20.6253V8.30385C27.8571 7.52241 27.5467 6.77297 26.9941 6.22041C26.4416 5.66785 25.6921 5.35742 24.9107 5.35742H5.08925ZM3.74997 20.6253V12.3217H26.25V20.6253C26.25 21.3646 25.65 21.9646 24.9107 21.9646H5.08925C4.34997 21.9646 3.74997 21.3646 3.74997 20.6253ZM3.74997 10.7146V8.30385C3.74997 7.56456 4.34997 6.96456 5.08925 6.96456H24.9107C25.65 6.96456 26.25 7.56456 26.25 8.30385V10.7146H3.74997Z" fill="#F4F5F6"/>
</svg>
