<svg width="30" height="30" viewBox="0 0 30 30" fill="none" xmlns="http://www.w3.org/2000/svg">
<path d="M26.606 27.496H27.468C27.7065 27.4908 27.9336 27.3932 28.1015 27.2238C28.2694 27.0545 28.365 26.8265 28.368 26.588V9.25098C28.3682 9.15265 28.3519 9.05499 28.32 8.96198C28.2852 8.83126 28.2161 8.71219 28.12 8.61698L26.428 6.81698C25.4747 5.80298 24.5214 4.79331 23.568 3.78798C23.336 3.53598 23.106 3.29398 22.878 3.05398L22.713 2.87998C22.6203 2.76916 22.5054 2.67898 22.3757 2.61526C22.246 2.55153 22.1044 2.51567 21.96 2.50998H8.45604C8.22207 2.48778 7.98609 2.50093 7.75604 2.54898C7.44717 2.70322 7.17946 2.92877 6.97504 3.20698L1.90904 8.59598C1.85301 8.65489 1.80432 8.72037 1.76404 8.79098C1.6811 8.92801 1.63654 9.08482 1.63504 9.24498V26.556C1.63315 26.8001 1.72749 27.035 1.89763 27.2101C2.06777 27.3851 2.30001 27.486 2.54404 27.491L26.606 27.496ZM8.41704 4.31598H21.586L25.366 8.33398L18.23 8.34098H4.63204L8.41704 4.31598ZM17.193 10.147V15.447L15.42 14.515C15.2816 14.4367 15.1268 14.3919 14.968 14.384C14.7962 14.3913 14.6281 14.4367 14.476 14.517L12.714 15.445V10.145L17.193 10.147ZM3.43504 10.147H10.898V16.947C10.9 17.1056 10.9428 17.2611 11.0224 17.3984C11.1019 17.5358 11.2154 17.6503 11.352 17.731C11.4922 17.8096 11.6503 17.851 11.811 17.851C11.9718 17.851 12.1298 17.8096 12.27 17.731L14.952 16.325L17.619 17.725C17.7616 17.8086 17.9236 17.8535 18.0888 17.8551C18.2541 17.8567 18.4169 17.8149 18.561 17.734C18.6964 17.6527 18.8086 17.538 18.8869 17.4009C18.9652 17.2638 19.0069 17.1089 19.008 16.951V10.151H26.557V25.684H3.43504V10.147Z" fill="#F4F5F6"/>
</svg>
