<svg width="30" height="30" viewBox="0 0 30 30" fill="none" xmlns="http://www.w3.org/2000/svg">
<path d="M28.125 10.0126L26.25 4.38755C26.1848 4.19351 26.0578 4.02615 25.8885 3.91104C25.7192 3.79592 25.5169 3.73938 25.3125 3.75005H4.6875C4.48306 3.73938 4.28075 3.79592 4.11147 3.91104C3.94218 4.02615 3.81523 4.19351 3.75 4.38755L1.875 10.0126C1.86149 10.1121 1.86149 10.213 1.875 10.3126V15.9376C1.875 16.1862 1.97377 16.4247 2.14959 16.6005C2.3254 16.7763 2.56386 16.8751 2.8125 16.8751H3.75V26.2501H5.625V16.8751H11.25V26.2501H26.25V16.8751H27.1875C27.4361 16.8751 27.6746 16.7763 27.8504 16.6005C28.0262 16.4247 28.125 16.1862 28.125 15.9376V10.3126C28.1385 10.213 28.1385 10.1121 28.125 10.0126V10.0126ZM24.375 24.3751H13.125V16.8751H24.375V24.3751ZM26.25 15.0001H22.5V11.2501H20.625V15.0001H15.9375V11.2501H14.0625V15.0001H9.375V11.2501H7.5V15.0001H3.75V10.4626L5.3625 5.62505H24.6375L26.25 10.4626V15.0001Z" fill="#F4F5F6"/>
</svg>
